<?xml version="1.0" encoding="utf-8"?>
<!-- Generator: Adobe Illustrator 25.2.3, SVG Export Plug-In . SVG Version: 6.00 Build 0)  -->
<svg version="1.1" xmlns="http://www.w3.org/2000/svg" xmlns:xlink="http://www.w3.org/1999/xlink" x="0px" y="0px"
	 viewBox="0 0 353.08 323.66" style="enable-background:new 0 0 353.08 323.66;" xml:space="preserve">
<style type="text/css">
	.st0{opacity:0.27;fill:#FFC71A;}
	.st1{opacity:0.28;fill:#83CDAC;}
	.st2{opacity:0.45;fill:#FFC71A;}
	.st3{clip-path:url(#XMLID_6_);}
	.st4{opacity:0.73;fill:none;stroke:#208E8E;stroke-width:1.5;stroke-linecap:round;stroke-linejoin:round;stroke-miterlimit:10;}
	.st5{fill:#FFC71A;}
	.st6{opacity:0.52;fill:#B1308A;}
	.st7{opacity:0.44;fill:#B1308A;}
	.st8{opacity:0.82;fill:#83CDAC;}
	.st9{opacity:0.82;fill:#69BC94;}
	.st10{opacity:0.48;fill:#2882C6;}
	.st11{opacity:0.62;fill:#2882C6;}
	.st12{fill:#0A3144;}
	.st13{fill:#E89760;}
	
		.st14{clip-path:url(#XMLID_14_);fill:none;stroke:#07595B;stroke-width:0.75;stroke-linecap:round;stroke-linejoin:round;stroke-miterlimit:10;}
	
		.st15{clip-path:url(#XMLID_14_);fill:none;stroke:#07595B;stroke-width:0.9645;stroke-linecap:round;stroke-linejoin:round;stroke-miterlimit:10;}
	.st16{fill:none;stroke:#06AAA1;stroke-linecap:round;stroke-linejoin:round;stroke-miterlimit:10;}
	.st17{clip-path:url(#XMLID_15_);fill:#D37F46;}
	.st18{fill:#DBA714;}
	.st19{fill:#A02586;}
	.st20{fill:none;stroke:#B1308A;stroke-width:0.6274;stroke-linecap:round;stroke-linejoin:round;stroke-miterlimit:10;}
	.st21{fill:none;stroke:#871A6D;stroke-width:0.6274;stroke-linecap:round;stroke-linejoin:round;stroke-miterlimit:10;}
	.st22{fill:#B1308A;}
	.st23{fill:#DD864B;}
	.st24{opacity:0.22;clip-path:url(#XMLID_16_);fill:#ED866E;}
	.st25{opacity:0.49;fill:url(#XMLID_17_);}
	.st26{fill:#441B28;}
	.st27{fill:none;stroke:#441B28;stroke-width:1.0875;stroke-linecap:round;stroke-linejoin:round;stroke-miterlimit:10;}
	.st28{fill:none;stroke:#CE3B19;stroke-width:0.8365;stroke-linecap:round;stroke-linejoin:round;stroke-miterlimit:10;}
	.st29{fill:#DD6FC0;}
	.st30{clip-path:url(#XMLID_18_);fill:#DD6FC0;}
	.st31{clip-path:url(#XMLID_19_);fill:none;stroke:#387AB7;stroke-miterlimit:10;}
	.st32{fill:none;stroke:#15536B;stroke-linecap:round;stroke-linejoin:round;stroke-miterlimit:10;}
	.st33{fill:#E8E8E8;}
	.st34{fill:#FFFFFF;}
	.st35{fill:none;stroke:#C1C1C1;stroke-width:0.75;stroke-linecap:round;stroke-linejoin:round;stroke-miterlimit:10;}
	.st36{fill:#E0A617;}
	.st37{clip-path:url(#XMLID_20_);fill:none;stroke:#387AB7;stroke-miterlimit:10;}
	.st38{fill:#387AB7;}
	.st39{fill:#065A98;}
</style>
<g id="BACKGROUND">
</g>
<g id="OBJECTS">
	<g>
		<g>
			<circle class="st0" cx="178.34" cy="162.71" r="136.31"/>
			<circle class="st1" cx="72.69" cy="99.72" r="41.95"/>
			<circle class="st1" cx="266" cy="66.23" r="28.86"/>
			
				<ellipse transform="matrix(0.7071 -0.7071 0.7071 0.7071 12.2274 82.3155)" class="st2" cx="105.48" cy="26.4" rx="12.84" ry="12.84"/>
			<g>
				<defs>
					<rect id="XMLID_13_" y="129.26" width="353.08" height="194.39"/>
				</defs>
				<clipPath id="XMLID_6_">
					<use xlink:href="#XMLID_13_"  style="overflow:visible;"/>
				</clipPath>
				<g class="st3">
					<path class="st4" d="M197.57,399.55c0,0,74.08-104.24,134.51-141.92"/>
					<path class="st5" d="M337.11,252.71c5.84-4.33,11.44,4.59,6.81,8.36c-4.63,3.77-15.19-1.54-15.19-1.54s-3.06-11.42,1.57-15.19
						C334.93,240.58,342.46,247.23,337.11,252.71z"/>
				</g>
				<g class="st3">
					<path class="st4" d="M207.41,322.34c0,0,42.3-120.69,89.93-173.63"/>
					<path class="st5" d="M300.81,142.59c4.41-5.77,12.26,1.24,8.86,6.15c-3.4,4.9-15.02,2.73-15.02,2.73s-6.1-10.12-2.7-15.03
						C295.35,131.54,304.42,135.85,300.81,142.59z"/>
				</g>
				<g class="st3">
					<path class="st4" d="M172.19,349.58c0,0-87.19-93.55-152.07-122.92"/>
					<path class="st5" d="M14.49,222.45c-6.36-3.52-10.73,6.06-5.65,9.19c5.09,3.13,14.85-3.53,14.85-3.53s1.52-11.72-3.56-14.85
						C15.05,210.14,8.47,217.73,14.49,222.45z"/>
				</g>
				<g class="st3">
					<path class="st6" d="M206.63,380.89c-6.31-52.02,18.88-106,52.51-146.97c1.24-1.51,4.33,12.06,5.59,10.59
						c0.96-1.12,0.09-17.3,1.06-18.4c6.48-7.34,13.2-14.18,20.01-20.44c1.01-0.93,5.62-4.85,6.91-5.84
						c9.21-7.08,26.44-14.46,40.69-4.11c7.15,5.19,12.15,21.63-10.62,52.69c-1.51,1.78-24.11-0.04-25.8,1.75
						c-1.14,1.21,20.93,6.02,19.72,7.24C286.97,287.26,233.17,322.99,206.63,380.89z"/>
					<path class="st7" d="M324.33,204.19c0.41-0.29,0.5-0.85,0.22-1.26c-0.29-0.41-0.85-0.5-1.26-0.21
						c-0.19,0.13-16.86,12.01-37.82,32.93c1-5.33,1.87-13.08,1.48-23.18c-0.01-0.27-0.02-0.47-0.02-0.58
						c0.02-0.15,0.01-0.3-0.05-0.45c-0.16-0.41-0.59-0.66-1.03-0.57c-0.77,0.16-0.74,0.76-0.71,1.67
						c0.46,11.81-0.82,20.33-2.01,25.47c-2.29,2.33-4.63,4.76-6.99,7.29c-3.28,3.51-6.71,7.32-10.22,11.42
						c-0.23,0.11-0.38,0.3-0.46,0.53c-21.26,24.84-45.6,59.97-58.6,101.72c-0.15,0.48,0.12,0.98,0.6,1.13
						c0.08,0.03,0.17,0.04,0.25,0.04c0.39,0.01,0.76-0.24,0.88-0.64c10.87-34.9,29.73-65.16,48.03-88.59
						c3.47-1.01,21.28-5.27,36.63-4.11c0.39,0.04,0.75-0.27,0.78-0.66c0.03-0.4-0.27-0.74-0.67-0.77c-12.99-0.98-28.82,2-35.26,3.66
						c2.98-3.76,5.94-7.34,8.84-10.73c4.82-1.15,20.45-4.16,35.33,0.87c0.09,0.03,0.18,0.05,0.27,0.05
						c0.39,0.01,0.75-0.23,0.88-0.61c0.16-0.47-0.09-0.99-0.57-1.15c-13.4-4.52-27.34-2.74-33.95-1.43
						c2.92-3.36,5.78-6.52,8.53-9.46C302.42,219.79,324.11,204.34,324.33,204.19z"/>
				</g>
				<g class="st3">
					<path class="st6" d="M194.48,334.88c-38.48,15.54-84.95,7.39-123.21-9.89c-1.41-0.64,8.33-5.79,6.94-6.46
						c-1.06-0.5-13.25,3.49-14.29,2.98c-6.94-3.44-13.56-7.17-19.75-11.1c-0.92-0.58-4.87-3.3-5.89-4.08
						c-7.31-5.58-16.13-18.15-11.52-30.27c1.53-4.02,14.04-13.75,42.48-2.73c1.67,0.79,4.93,18.44,6.65,19.37
						c1.16,0.62,0.3-17.25,1.47-16.57C106.33,292.72,144.74,326.51,194.48,334.88z"/>
					<path class="st7" d="M35.11,281.26c-0.3-0.25-0.76-0.21-1.01,0.09c-0.25,0.31-0.21,0.76,0.1,1.01
						c0.14,0.12,12.66,10.42,32.97,22.14c-4.28,0.33-10.39,1.26-18.03,3.65c-0.2,0.06-0.35,0.11-0.44,0.14
						c-0.12,0.01-0.23,0.06-0.33,0.13c-0.28,0.21-0.38,0.59-0.22,0.91c0.28,0.55,0.73,0.41,1.42,0.2
						c8.94-2.78,15.72-3.56,19.89-3.71c2.25,1.27,4.59,2.56,7.02,3.85c3.36,1.78,6.98,3.62,10.83,5.47c0.13,0.15,0.31,0.23,0.5,0.24
						c23.37,11.15,55.25,22.52,89.85,23.87c0.4,0.02,0.73-0.29,0.74-0.69c0-0.07,0-0.14-0.02-0.2c-0.07-0.3-0.34-0.53-0.67-0.54
						c-28.92-1.13-55.95-9.31-77.64-18.49c-1.49-2.44-8.41-15.19-10.69-27.17c-0.05-0.3-0.36-0.51-0.67-0.46
						c-0.31,0.06-0.51,0.36-0.45,0.67c1.93,10.13,7.46,21.63,10.06,26.21c-3.49-1.5-6.84-3.03-10.03-4.55
						c-1.88-3.45-7.39-14.78-6.61-27.2c0-0.07,0-0.15-0.02-0.22c-0.07-0.3-0.33-0.52-0.65-0.54c-0.39-0.03-0.73,0.27-0.76,0.67
						c-0.7,11.18,3.53,21.47,5.9,26.26c-3.17-1.54-6.17-3.08-8.99-4.57C51.56,294.8,35.27,281.39,35.11,281.26z"/>
				</g>
				<g class="st3">
					<path class="st8" d="M157.11,341.1c3.27-43.31-19.55-87.06-48.86-119.72c-1.08-1.2-3.13,10.15-4.22,8.98
						c-0.84-0.89-0.72-14.32-1.57-15.2c-5.63-5.83-11.43-11.24-17.29-16.17c-0.87-0.73-3.58,9.58-4.44,8.91
						c-1.12-0.88-0.38-12.72-1.48-13.49c-7.87-5.51-26.53-10.19-33.77-1.87c-5.69,6.55-9.23,18.37,10.74,43.23
						c1.31,1.42,19.91-0.94,21.37,0.48c0.98,0.96-17.07,5.78-16.02,6.74C87.25,266.6,133.03,294.16,157.11,341.1z"/>
					<path class="st9" d="M53.29,199.23c-0.35-0.22-0.45-0.69-0.22-1.03c0.22-0.35,0.69-0.45,1.03-0.22
						c0.16,0.1,14.38,9.31,32.47,25.84c-1.03-4.38-2.03-10.76-2.08-19.14c0-0.22,0-0.39,0-0.48c-0.02-0.12-0.02-0.25,0.02-0.37
						c0.11-0.35,0.47-0.57,0.83-0.51c0.64,0.1,0.64,0.6,0.65,1.36c0.06,9.8,1.44,16.81,2.61,21.01c1.98,1.84,4,3.77,6.05,5.77
						c2.84,2.78,5.81,5.81,8.87,9.07c0.19,0.08,0.33,0.24,0.4,0.42c18.49,19.76,39.9,47.93,52.2,82.01
						c0.14,0.39-0.06,0.82-0.45,0.96c-0.07,0.02-0.14,0.04-0.2,0.04c-0.32,0.02-0.64-0.17-0.75-0.49
						c-10.28-28.49-26.99-52.83-42.98-71.54c-2.9-0.71-17.77-3.56-30.41-2.02c-0.32,0.05-0.63-0.19-0.67-0.52
						c-0.04-0.33,0.19-0.63,0.52-0.67c10.69-1.3,23.88,0.57,29.26,1.7c-2.6-3-5.18-5.86-7.7-8.55c-4.03-0.77-17.05-2.67-29.15,2.05
						c-0.07,0.03-0.15,0.04-0.22,0.05c-0.32,0.02-0.63-0.16-0.75-0.48c-0.15-0.39,0.04-0.82,0.43-0.97
						c10.9-4.25,22.48-3.3,27.99-2.47c-2.54-2.67-5.02-5.18-7.4-7.51C71.97,211.32,53.48,199.34,53.29,199.23z"/>
				</g>
				<g class="st3">
					<path class="st10" d="M213.71,350.89c29.76,8.24,63.43-1.68,90.26-17.67c0.99-0.59-6.65-3.58-5.68-4.18
						c0.74-0.46,10.09,1.47,10.82,1c4.84-3.13,9.42-6.44,13.67-9.86c0.63-0.51,3.35-2.82,4.01-3.51c9.18-9.55,8.19-18.16,5.97-23.33
						c-1.27-2.94-11.54-8.97-31.64,1.56c-1.17,0.72-2.09,14.04-3.29,14.86c-0.8,0.56-1.67-12.71-2.49-12.12
						C275.33,312.34,249.78,340.52,213.71,350.89z"/>
					<path class="st11" d="M327.02,297.88c0.2-0.21,0.54-0.22,0.75-0.01c0.21,0.2,0.22,0.54,0.01,0.75
						c-0.09,0.1-8.48,8.76-22.51,19.12c3.19-0.12,7.79,0.06,13.64,1.18c0.16,0.03,0.27,0.05,0.34,0.06c0.09,0,0.18,0.02,0.26,0.07
						c0.23,0.13,0.33,0.4,0.24,0.65c-0.16,0.43-0.51,0.37-1.04,0.27c-6.84-1.3-11.92-1.31-15.02-1.07
						c-1.56,1.13-3.18,2.28-4.86,3.43c-2.33,1.6-4.86,3.26-7.55,4.95c-0.09,0.12-0.21,0.2-0.35,0.22
						c-16.34,10.2-38.95,21.28-64.42,25.18c-0.29,0.04-0.56-0.16-0.61-0.45c-0.01-0.05-0.01-0.1,0-0.15
						c0.03-0.23,0.21-0.42,0.45-0.46c21.29-3.26,40.58-11.58,55.84-20.18c0.89-1.93,4.94-11.92,5.61-20.96
						c0.01-0.23,0.22-0.41,0.46-0.39c0.23,0.02,0.41,0.22,0.39,0.46c-0.57,7.64-3.7,16.6-5.23,20.2c2.45-1.4,4.8-2.81,7.03-4.2
						c1.1-2.71,4.22-11.54,2.6-20.64c-0.01-0.05-0.01-0.11,0-0.16c0.03-0.23,0.2-0.42,0.43-0.46c0.29-0.05,0.57,0.14,0.62,0.43
						c1.46,8.2-0.8,16.15-2.15,19.89c2.21-1.41,4.3-2.79,6.26-4.13C316,309.27,326.91,298,327.02,297.88z"/>
				</g>
			</g>
			<g>
				<path class="st12" d="M128.3,266.55l11.53,57.1l28.16-0.01c0,0,5.46-48.45,6.09-53.47C174.7,265.17,128.3,266.55,128.3,266.55z"
					/>
				<path class="st12" d="M227.3,266.55l-11.53,57.1l-28.16-0.01c0,0-5.46-48.45-6.09-53.47C180.9,265.17,227.3,266.55,227.3,266.55
					z"/>
				<path class="st13" d="M242.85,179.66c12.17,8.87,18.54,39.79,22.6,60.87c1.95,10.16-1.68,13.46-4.64,15.62
					c-9.09,6.64-6.91-1.17-6.91-1.17S239.57,179.66,242.85,179.66z"/>
				<path class="st13" d="M114.73,179.66c-12.17,8.87-17.29,39.79-21.34,60.87c-1.95,10.16,1.68,13.46,4.64,15.62
					c9.09,6.64,6.91-1.17,6.91-1.17S118.01,179.66,114.73,179.66z"/>
				<g>
					<defs>
						<path id="XMLID_8_" d="M166.05,111.85c0,0-38.28,8.65-42.98,19.14c-1.55,5.09-5.49,22.02-7.36,37.62
							c-5.08,42.27,9.56,102.41,10.08,104.51c1.98,10.93,105.55,10.63,107.22,0c1.14-7.24,17.39-64.77,10.24-105.09
							c-3.51-19.8-9.61-34.67-12.67-40.19c-8.73-9.34-46.09-15.51-46.09-15.51L166.05,111.85z"/>
					</defs>
					<use xlink:href="#XMLID_8_"  style="overflow:visible;fill:#0C6E75;"/>
					<clipPath id="XMLID_14_">
						<use xlink:href="#XMLID_8_"  style="overflow:visible;"/>
					</clipPath>
					<path class="st14" d="M142.31,115.82c0,0-1.05,17.19,31.59,16.57c31.42-0.6,37.96-12.58,37.7-15.11"/>
					<path class="st15" d="M124.56,265.13c0,0-1.59,12.54,52.39,11.92c51.97-0.6,60.76-8.14,60.32-10.67"/>
				</g>
				<line class="st16" x1="130.59" y1="133.55" x2="139.83" y2="185.88"/>
				<line class="st16" x1="227.3" y1="131.71" x2="219.5" y2="185.88"/>
				<g id="XMLID_311_">
					<defs>
						<path id="XMLID_312_" d="M184.19,69.45c0,0,1.98,25.24,3.72,41.8c-0.04,1.12,1.74,2.15,1.74,2.15s15.1,3.1,18.46,4.31
							c-6.27,14.41-62.32,16.39-62.32-0.03c4.09-1.61,14.05-4.3,16.55-4.92c0.95-0.24,1.62-1.56,1.64-2.19
							c0.36-11.24,1.25-31.38,2.42-39.69C164.64,66.98,184.19,69.45,184.19,69.45z"/>
					</defs>
					<use xlink:href="#XMLID_312_"  style="overflow:visible;fill:#E89760;"/>
					<clipPath id="XMLID_15_">
						<use xlink:href="#XMLID_312_"  style="overflow:visible;"/>
					</clipPath>
					<path id="XMLID_313_" class="st17" d="M162.13,85.97c-0.25,2.05-4.15,20.95-0.87,21.68c15.25,6.83,33.85-15.31,33.96-15.98
						C194.79,91.41,162.13,85.97,162.13,85.97z"/>
				</g>
				<path class="st18" d="M121.22,159.51l112.98,0.41l20.8,18.88c0,0,1.72,68.02-0.2,70.9c-1.92,2.88-148.9,2.76-148.9,2.76
					l-3.43-73.66L121.22,159.51z"/>
				<g>
					<g>
						<g>
							
								<ellipse transform="matrix(0.9878 -0.1559 0.1559 0.9878 -0.854 25.6158)" class="st19" cx="162.86" cy="18.25" rx="19.35" ry="18.22"/>
						</g>
						<path class="st20" d="M177.67,26.92c3.57-1.82,11.61-14.26-3.86-25.74"/>
						<path class="st21" d="M172.55,28.94c3.57-1.82,11.61-14.26-3.86-25.74"/>
						<path class="st21" d="M154.11,30.58c-3.81-1.24-13.72-12.24-0.27-26.03"/>
						<path class="st21" d="M162.45,29.33c-3.81-1.24-17.48-11.71-4.02-25.49"/>
						
							<ellipse transform="matrix(0.9878 -0.1559 0.1559 0.9878 -5.8486 26.8083)" class="st22" cx="167.98" cy="50.69" rx="34.22" ry="30.27"/>
						<path id="XMLID_315_" class="st23" d="M150.83,71.31c0,0-7.01-2.76-7.84,1.41c-1.75,8.71,9.75,13.72,10.64,13.97
							C154.53,86.94,150.83,71.31,150.83,71.31z"/>
						<path id="XMLID_9_" class="st23" d="M191.93,64.83c0,0,5.82-4.79,7.89-1.08c4.35,7.74-5.05,16.06-5.82,16.57
							C193.23,80.83,191.93,64.83,191.93,64.83z"/>
						<g id="XMLID_307_">
							<defs>
								<path id="XMLID_308_" d="M146.45,51.59c-1.51,5.92-0.11,13.96,1.06,21.33c3.21,20.36,12.31,26.5,28.28,26.78
									c16.54-4.31,22.91-15.01,19.69-35.37c-1.09-6.88-1.59-12.95-4.18-17.31C188.85,41.06,160.9,32.16,146.45,51.59z"/>
							</defs>
							<use xlink:href="#XMLID_308_"  style="overflow:visible;fill-rule:evenodd;clip-rule:evenodd;fill:#E89760;"/>
							<clipPath id="XMLID_16_">
								<use xlink:href="#XMLID_308_"  style="overflow:visible;"/>
							</clipPath>
							<path id="XMLID_309_" class="st24" d="M150,79.05c-0.23,2.61,2.82,5.01,6.81,5.35c3.99,0.34,7.4-1.5,7.62-4.11
								c0.22-2.61-2.82-5.01-6.81-5.35C153.64,74.6,150.23,76.44,150,79.05z"/>
							<path id="XMLID_5_" class="st24" d="M195.73,71.83c1.02,2.42-1.14,5.63-4.83,7.19c-3.69,1.55-7.5,0.86-8.52-1.56
								c-1.02-2.42,1.14-5.63,4.83-7.19C190.89,68.72,194.71,69.42,195.73,71.83z"/>
						</g>
						
							<linearGradient id="XMLID_17_" gradientUnits="userSpaceOnUse" x1="64.1252" y1="13.6568" x2="64.1252" y2="29.2728" gradientTransform="matrix(0.9906 -0.1371 0.1371 0.9906 105.4067 59.0532)">
							<stop  offset="0" style="stop-color:#FFFFFF"/>
							<stop  offset="0.1492" style="stop-color:#FEFBFB"/>
							<stop  offset="0.3118" style="stop-color:#FDF0ED"/>
							<stop  offset="0.4808" style="stop-color:#FADED8"/>
							<stop  offset="0.6541" style="stop-color:#F6C5B9"/>
							<stop  offset="0.8291" style="stop-color:#F2A492"/>
							<stop  offset="0.968" style="stop-color:#ED866E"/>
						</linearGradient>
						<path id="XMLID_303_" class="st25" d="M174.08,71.22c1.22,4.14,2.84,7.49-1.17,8.05c-3.9,0.54-3.39-3.45-3.15-7.75
							c0.24-4.39-0.41-7.52,1.01-7.72C172.41,63.57,172.8,66.88,174.08,71.22z"/>
						<path id="XMLID_1_" class="st26" d="M161.21,69.43c0.27,1.96-0.74,3.73-2.25,3.94c-1.52,0.21-2.96-1.21-3.24-3.18
							c-0.27-1.96,0.74-3.73,2.25-3.94C159.49,66.04,160.94,67.46,161.21,69.43z"/>
						<path id="XMLID_288_" class="st27" d="M161.14,61.15c0,0-3.72-0.59-7.03,1.7"/>
						<path id="XMLID_7_" class="st28" d="M179.07,81.86c-2.83,3.33-7.34,3.97-10.5,1.77"/>
						<path id="XMLID_4_" class="st26" d="M181.59,66.21c0.35,1.95,1.85,3.32,3.35,3.05c1.51-0.27,2.45-2.07,2.1-4.02
							c-0.35-1.95-1.85-3.32-3.35-3.05C182.19,62.46,181.25,64.26,181.59,66.21z"/>
						<path id="XMLID_3_" class="st27" d="M179.24,58.29c0,0,3.36-1.71,7.21-0.55"/>
						<path class="st20" d="M150.38,27.06c-0.93-2.15-19.7,6.83-17.45,26.55"/>
						<path class="st21" d="M174.31,24.38c6.99,1.34,24.8,8.9,24.44,28.96"/>
						<path class="st21" d="M170.74,28.52c7.09,0.57,25.63,6.12,27.48,26.1"/>
						<path class="st21" d="M152.87,27.76c-6.23,3.43-20.85,16.11-14.34,35.08"/>
						<path class="st21" d="M157.22,30.05c-6.2,3.49-20.7,16.3-14,35.22"/>
					</g>
					<path class="st22" d="M149.65,84.57c0,1.47-0.3,1.66-0.68,1.66c-0.38,0-0.68-0.19-0.68-1.66c0-1.47,0.3-1.61,0.68-1.61
						C149.35,82.96,149.65,83.1,149.65,84.57z"/>
					<path class="st22" d="M198.22,76.9c0,1.47-0.3,1.66-0.68,1.66s-0.68-0.19-0.68-1.66c0-1.47,0.3-1.61,0.68-1.61
						S198.22,75.42,198.22,76.9z"/>
				</g>
				<path class="st29" d="M201.85,167.3c0,0-12.07,10.84-8.18,12.69c3.89,1.85,58.93-1.19,61.33-1.19c7.14,0,3.27-10.35-1.12-10.58
					C252.12,168.13,208.33,166.65,201.85,167.3z"/>
				<g>
					<defs>
						<path id="XMLID_10_" d="M162.86,171.73c0,0-55.87-12.02-64.41-8.32c-5.62,2.06-15.22,22.14-14.62,25.76
							c0.69,5.75,14.66,8.86,18.64,5.87c2.56-1.93-1.13-9.49,0-16.25c3.21,2,40.22,7.6,53.2,7.09
							C168.67,185.36,168.92,172.8,162.86,171.73z"/>
					</defs>
					<use xlink:href="#XMLID_10_"  style="overflow:visible;fill:#B1308A;"/>
					<clipPath id="XMLID_18_">
						<use xlink:href="#XMLID_10_"  style="overflow:visible;"/>
					</clipPath>
					<path class="st30" d="M92.84,183.29c0,2.49-2.02,4.5-4.5,4.5c-2.49,0-4.5-2.02-4.5-4.5c0-2.49,2.02-4.5,4.5-4.5
						C90.82,178.79,92.84,180.81,92.84,183.29z"/>
					<circle class="st30" cx="106.98" cy="178.03" r="4.5"/>
					<path class="st30" d="M126.49,175.17c2.48,0.11,4.41,2.22,4.3,4.7c-0.11,2.48-2.22,4.41-4.7,4.3c-2.48-0.11-4.41-2.22-4.29-4.7
						C121.9,176.98,124.01,175.05,126.49,175.17z"/>
					<path class="st30" d="M154.54,175.17c2.48,0.11,4.41,2.22,4.3,4.7c-0.11,2.48-2.22,4.41-4.7,4.3c-2.48-0.11-4.41-2.22-4.29-4.7
						C149.95,176.98,152.06,175.05,154.54,175.17z"/>
					<path class="st30" d="M102.58,163.43c2.48,0.11,4.45,1.21,4.4,2.45c-0.06,1.24-2.11,2.16-4.6,2.05
						c-2.48-0.11-4.45-1.21-4.4-2.45C98.04,164.23,100.1,163.31,102.58,163.43z"/>
					<path class="st30" d="M135.31,169.11c2.48,0.11,4.45,1.21,4.4,2.45c-0.06,1.24-2.11,2.16-4.6,2.05
						c-2.48-0.11-4.45-1.21-4.4-2.45C130.77,169.91,132.83,168.99,135.31,169.11z"/>
					<path class="st30" d="M150.59,167.04c2.48,0.11,4.45,1.21,4.4,2.45c-0.06,1.24-2.11,2.16-4.6,2.05s-4.45-1.21-4.4-2.45
						C146.05,167.85,148.11,166.93,150.59,167.04z"/>
				</g>
				<path class="st21" d="M85.39,189.26c3.24,3.58,11.88,6.36,13.82,4.91c1.93-1.45,1.51-15.38,1.51-15.38s-9.01-6.83-6.52-5.51
					c1.58,0.84,7.04,3.09,7.04,3.09s-3.66-9.13-1.97-6.23c1.69,2.9,3.21,4.83,3.21,4.83s57.88,2.17,60.06,1.45"/>
				<g>
					<defs>
						<path id="XMLID_11_" d="M122.49,182.07c0,0,46.75-16.41,60.01-16.36c13.27,0.05,49.95,9.01,51.69,16.36
							C235.12,186.03,124.67,181.94,122.49,182.07z"/>
					</defs>
					<use xlink:href="#XMLID_11_"  style="overflow:visible;fill:#065A98;"/>
					<clipPath id="XMLID_19_">
						<use xlink:href="#XMLID_11_"  style="overflow:visible;"/>
					</clipPath>
					<path class="st31" d="M131.24,184.73c6.28-2.25,66.76-21.61,67.24-19.25c0.48,2.35-53.96,22.01-47.29,22.43
						c6.67,0.42,55.88-21.83,56.92-20.77c1.03,1.06-36.9,19.71-33.08,19.92c3.81,0.21,41.96-19.79,43.44-18.05
						c1.48,1.74-20.98,21.02-15.26,18.9c5.72-2.12,19.28-13.77,22.67-14.83"/>
				</g>
				<path class="st12" d="M188.8,162.88c0,0-12.17,11.48-8.28,12.98c3.89,1.51,54.38-1.54,56.76-1.66c6.83-0.35,4.38-9.05-5.19-11.5
					C230.42,162.28,195.28,162.35,188.8,162.88z"/>
				<path class="st32" d="M195.25,167.13c0,0,38.97-0.58,40.48,1.91c1.29,2.12-46.96,1.74-46.96,1.74"/>
				<g>
					<path class="st33" d="M185.18,153.79c0,0-41.07-3.73-48.23-3.26c-7.17,0.47-11.36,14.62-8.16,16.62
						c3.21,2,45.87,3.5,58.85,2.98C200.63,169.6,191.23,154.86,185.18,153.79z"/>
					<path class="st34" d="M188.88,159.07c0,0-48.59-3.59-55.76-3.13c-7.17,0.47-6.15,13.51-2.94,15.51
						c3.21,2,43.19,3.14,56.18,2.63C199.35,173.56,194.94,160.14,188.88,159.07z"/>
					<path class="st35" d="M140.6,164.22c3.29,0.36,35.53,0.9,46.56,2.77c3.07,0.52,2.5,3.7,1.62,3.8
						c-10.36,1.17-53.58-0.46-55.51-3.8c-0.33-0.56-0.31-5.89,1.23-5.89c13.42,0,53.62,2.61,52.16,2.38"/>
				</g>
				<g>
					<path class="st5" d="M102.48,178.79H255c0,0,2.63,80.55,0.71,83.43c-11.93,2.27-153.23,3.04-153.23,3.04V178.79z"/>
					<path class="st13" d="M256.36,239.43c-0.17,0.97,0.4,7.42-2.08,10.79c-1.51,1.74-6.75,4.81-4.49,7.19
						c2.13,2.25,8.54-3.48,9.1-4.15c0.57-0.67,1.39,1.06,0.8,1.77c-0.59,0.71-5.61,4.45-5.61,4.45c-5.91-0.74-19.9-1.68-19.9,2.32
						c10,1.04,12.53,1.17,12.53,1.17s0.43,0.09,0,0c-5.45,0-13.39,0.24-14.97,0.63c-0.88,1.78,6.89,2.75,8.2,2.97
						c9.94,1.66,16.34,1.69,16.34,1.69c2.74,0,10.48-3.04,11.46-4.55c0.99-1.51,1.24-17.04-2.29-20.21
						C264.28,242.43,256.62,238,256.36,239.43z"/>
					<path class="st13" d="M102.63,239.43c0.17,0.97-0.4,7.42,2.08,10.79c1.5,1.74,6.75,4.81,4.49,7.19
						c-2.13,2.25-8.54-3.48-9.1-4.15c-0.57-0.67-1.39,1.06-0.8,1.77c0.59,0.71,5.61,4.45,5.61,4.45c5.91-0.74,17.97-3.76,20.08,0.12
						c-2.96,1.42-15.5,4.73-15.5,4.73s2.7-1.8,3.12-1.89c5.45,0,16.18-0.21,17.76,0.18c0.09,3-5.83,3-10.65,3.77
						c-9.95,1.6-17.01,1.87-17.01,1.87c-2.74,0-10.48-3.04-11.46-4.55c-0.99-1.51-1.24-17.04,2.29-20.21
						C94.72,242.43,102.38,238,102.63,239.43z"/>
				</g>
				<path class="st36" d="M137.24,178.79c0,0,12.67,8.44,16.74,9.01c4.06,0.58,16.75,2.07,24.83,3.98
					c4.93,1.16,10.66,12.27,18.46,14.2c0,2.88,2.58,4.35,3.94,4.41c3.49,0.16,7.28-9.77,7.28-9.77l-11.23-21.83H137.24z"/>
				<g>
					<g>
						<defs>
							<path id="XMLID_12_" d="M144.04,178.79c0,0,49.13-1.8,62.4-1.76c7.15,0.03,17.97,14.49,15.59,20.7
								c-2.04,5.31-18.13,7.17-21.62,7.04c-7.95-0.29-1.48-14.1-18.88-18.9C154.14,184.16,145.16,178.73,144.04,178.79z"/>
						</defs>
						<use xlink:href="#XMLID_12_"  style="overflow:visible;fill:#065A98;"/>
						<clipPath id="XMLID_20_">
							<use xlink:href="#XMLID_12_"  style="overflow:visible;"/>
						</clipPath>
						<path class="st37" d="M144.04,185.42c6.28-2.25,62.73-9.22,63.21-6.86c0.48,2.35-58.24,11.58-51.57,12.01
							s60.17-11.4,61.2-10.34c1.03,1.06-34.83,11.26-31.02,11.47c3.81,0.21,39.89-11.34,41.38-9.6c1.48,1.74-40.5,16.56-34.78,14.44
							c4.1-1.52,22.26-5.65,33.47-8.25c4.43-1.03-37.69,17.13-36.73,16.83"/>
					</g>
					<path class="st38" d="M201.05,203.32c0,0-0.32,6.74,1.2,7.36c1.51,0.62,19.72-2.36,20.11-4.7c0.39-2.34-0.05-6.51-1.46-7.98
						C217.48,195.5,203.28,200.77,201.05,203.32z"/>
					<path class="st39" d="M220.19,204.78c0,0-20.1,3.16-17.23,3.96C205.84,209.54,222.43,206.09,220.19,204.78z"/>
				</g>
			</g>
		</g>
	</g>
</g>
</svg>
