<?xml version="1.0" standalone="no"?>
<!DOCTYPE svg PUBLIC "-//W3C//DTD SVG 20010904//EN"
 "http://www.w3.org/TR/2001/REC-SVG-20010904/DTD/svg10.dtd">
<svg version="1.0" xmlns="http://www.w3.org/2000/svg"
 width="512.000000pt" height="512.000000pt" viewBox="0 0 512.000000 512.000000"
 preserveAspectRatio="xMidYMid meet">
<metadata>
Created by potrace 1.14, written by Peter Selinger 2001-2017
</metadata>
<g transform="translate(0.000000,512.000000) scale(0.100000,-0.100000)"
fill="#000000" stroke="none">
<path d="M2462 5008 c-16 -21 -54 -110 -69 -163 -13 -47 -22 -105 -27 -178
l-2 -32 -90 -11 c-49 -6 -92 -9 -95 -8 -4 2 -9 17 -12 34 -11 51 -78 177 -129
240 -48 59 -51 60 -86 54 -20 -4 -57 -14 -82 -23 -38 -14 -45 -22 -52 -51 -19
-85 -16 -226 8 -333 4 -21 1 -28 -13 -33 -10 -4 -49 -20 -87 -37 -63 -29 -69
-30 -78 -13 -50 89 -227 256 -272 256 -9 0 -43 -17 -77 -37 l-61 -38 6 -73 c6
-86 37 -196 72 -257 13 -24 24 -47 24 -52 0 -4 -30 -30 -65 -57 -57 -43 -67
-47 -82 -35 -10 8 -38 30 -63 50 -25 20 -65 47 -90 61 -45 25 -152 68 -170 68
-6 0 -35 -25 -65 -55 l-55 -56 26 -67 c36 -95 88 -181 156 -256 16 -17 14 -22
-39 -86 l-56 -69 -58 30 c-73 37 -187 67 -264 71 l-59 3 -38 -65 c-44 -75 -43
-82 17 -160 48 -62 100 -112 163 -154 24 -16 45 -33 48 -38 3 -5 -8 -44 -26
-87 l-31 -78 -66 13 c-78 14 -201 16 -263 3 -25 -6 -50 -10 -57 -11 -15 -2
-28 -32 -43 -102 -11 -52 -10 -60 7 -78 38 -43 156 -116 237 -148 l84 -33 -3
-36 c-2 -20 -3 -54 -4 -76 -1 -22 -5 -45 -9 -51 -4 -6 -36 -14 -72 -18 -87 -9
-171 -32 -247 -66 -60 -27 -63 -31 -64 -64 -4 -130 -7 -124 74 -160 85 -39
146 -55 236 -62 36 -3 68 -7 72 -10 3 -2 9 -36 13 -76 4 -40 9 -81 12 -90 4
-13 -5 -20 -38 -28 -82 -23 -213 -100 -285 -169 l-22 -21 20 -72 c11 -40 22
-74 24 -76 9 -10 98 -24 165 -27 72 -3 165 6 209 20 17 5 24 -3 50 -59 47
-104 48 -98 -14 -141 -64 -44 -172 -156 -199 -208 l-19 -34 35 -64 35 -64 84
1 c87 2 208 34 276 74 l31 18 57 -73 56 -74 -51 -63 c-28 -35 -62 -82 -75
-105 -27 -49 -65 -147 -65 -168 0 -20 95 -115 115 -115 55 0 230 94 302 163
l32 30 74 -57 75 -57 -23 -47 c-37 -76 -58 -141 -69 -212 -18 -117 -18 -118
53 -161 36 -21 68 -39 71 -39 4 0 27 14 52 30 61 40 151 132 194 198 20 29 39
52 43 50 3 -2 39 -16 79 -32 l73 -29 -8 -46 c-13 -77 -9 -276 7 -348 1 -6 101
-33 129 -35 31 -3 39 3 83 57 48 59 119 192 132 249 7 28 7 28 64 22 94 -11
125 -15 127 -18 2 -2 6 -31 9 -65 7 -75 28 -165 50 -218 37 -88 41 -95 61 -96
24 -2 114 -2 136 0 36 2 104 208 111 335 l3 49 47 3 c27 2 66 8 87 13 l40 9
16 -51 c34 -104 140 -275 181 -291 20 -8 140 23 154 39 15 18 25 89 25 185 0
80 -10 184 -20 199 -2 4 34 23 81 43 l84 35 44 -61 c50 -70 133 -151 194 -190
l42 -26 53 26 c83 42 86 47 82 121 -5 81 -26 159 -67 246 l-32 68 29 24 c17
13 48 37 70 54 l41 29 59 -49 c67 -55 149 -101 230 -129 l56 -19 49 45 c27 26
52 54 55 65 13 39 -75 212 -161 316 l-26 32 53 68 c29 38 54 70 56 72 1 2 28
-8 58 -23 73 -34 184 -64 260 -69 68 -5 68 -5 114 85 l30 56 -32 48 c-40 61
-143 164 -200 200 l-44 27 25 61 c13 34 28 71 33 83 7 19 12 21 41 12 49 -15
224 -18 297 -5 l65 11 18 60 c26 86 24 99 -23 139 -73 62 -156 106 -286 151
-8 2 -9 15 -3 42 5 21 10 57 11 81 2 24 5 45 8 47 4 1 35 6 71 10 125 13 308
76 311 107 2 17 2 108 0 134 -2 39 -203 110 -326 115 -30 1 -56 5 -57 8 0 3
-2 17 -4 31 -1 14 -6 51 -12 83 -9 58 -9 59 17 68 122 45 224 101 284 157 31
30 33 54 9 131 -17 53 -19 55 -67 68 -51 13 -260 12 -320 -1 -29 -7 -31 -6
-60 66 -16 40 -31 76 -33 80 -2 3 19 21 45 39 89 61 205 186 226 241 3 10 -9
41 -33 80 -36 60 -40 63 -76 63 -87 1 -213 -30 -308 -76 -22 -10 -41 -19 -42
-19 -2 0 -16 19 -32 43 -17 23 -39 53 -51 66 -12 13 -21 26 -21 29 0 2 13 21
29 41 76 97 151 243 151 297 0 13 -20 40 -51 69 -44 41 -54 46 -82 41 -55 -10
-193 -84 -256 -137 l-61 -50 -56 45 c-31 26 -63 50 -71 54 -13 8 -11 16 10 58
36 71 67 178 74 256 7 81 1 91 -82 132 l-54 28 -63 -45 c-70 -49 -127 -108
-176 -179 -18 -27 -37 -48 -41 -48 -5 0 -28 9 -52 19 -24 11 -61 26 -81 34
l-37 15 13 44 c16 52 18 224 4 295 -10 51 -12 53 -57 67 -97 31 -111 31 -138
0 -70 -85 -163 -255 -163 -300 0 -12 -6 -15 -23 -10 -13 3 -55 8 -93 12 -38 4
-70 7 -71 8 -1 1 -4 30 -7 66 -3 36 -8 76 -11 90 -9 45 -46 153 -66 192 l-19
38 -79 0 c-51 0 -82 -4 -89 -12z m303 -492 c16 -3 52 -8 80 -11 289 -37 669
-202 918 -397 61 -49 67 -80 22 -124 -6 -7 -54 -60 -105 -118 -51 -58 -97
-106 -101 -106 -4 0 -14 -2 -21 -5 -8 -3 -59 24 -113 60 -301 200 -569 281
-920 279 -301 -1 -577 -85 -814 -245 -152 -103 -150 -102 -170 -93 -10 5 -68
65 -130 133 -124 139 -132 159 -80 201 17 14 36 30 43 35 56 50 247 166 362
220 76 36 334 128 334 120 0 -3 12 0 26 5 37 14 186 40 274 47 41 3 76 7 78 8
4 4 285 -4 317 -9z m-420 -672 c-1 -44 -4 -124 -8 -179 -4 -55 -10 -129 -12
-165 -3 -36 -7 -90 -9 -120 -3 -30 -8 -93 -11 -140 -10 -139 -14 -163 -32
-183 -29 -31 -33 -29 -408 153 -104 51 -228 110 -275 132 -103 48 -133 73
-120 99 6 10 45 46 88 81 42 34 79 65 82 68 3 3 51 42 108 88 137 111 269 177
476 236 114 33 121 29 121 -70z m509 80 c141 -36 321 -113 440 -188 145 -94
340 -272 334 -308 -3 -22 -53 -49 -349 -192 -86 -41 -208 -100 -270 -130 -131
-65 -148 -70 -177 -47 -23 17 -26 33 -37 211 -3 52 -7 111 -10 130 -2 19 -7
85 -10 145 -4 61 -9 121 -10 135 -13 108 -16 232 -5 245 15 19 18 19 94 -1z
m-1562 -141 c151 -151 152 -155 69 -254 -288 -343 -400 -761 -324 -1219 10
-63 9 -118 -3 -130 -6 -6 -86 -33 -178 -61 -158 -47 -169 -49 -192 -34 -13 8
-24 17 -24 19 0 3 -15 82 -25 126 -14 70 -20 163 -20 335 0 204 6 272 36 405
6 25 12 54 15 65 19 99 86 279 155 415 102 202 296 450 353 450 12 0 68 -48
138 -117z m2715 89 c236 -233 432 -644 488 -1022 23 -162 24 -491 1 -562 -3
-7 -7 -31 -10 -53 -23 -178 -26 -180 -233 -119 -174 51 -209 73 -199 123 3 14
8 44 12 66 3 22 7 51 10 65 12 62 11 322 -1 410 -19 132 -20 138 -50 237 -54
177 -174 391 -294 525 -50 56 -59 79 -42 108 6 8 61 67 123 131 126 131 146
140 195 91z m-133 -860 c82 -249 92 -528 30 -792 -9 -36 -17 -69 -18 -75 -10
-44 -30 -84 -45 -88 -10 -2 -48 16 -92 46 -69 46 -327 222 -532 361 -92 63
-110 90 -86 126 8 11 86 68 174 128 88 59 237 160 331 224 95 63 178 118 185
120 25 9 38 -3 53 -50z m-2316 -139 c152 -103 305 -206 338 -228 102 -66 109
-110 27 -162 -27 -17 -124 -83 -218 -147 -335 -231 -424 -288 -442 -284 -21 4
-46 72 -73 203 -49 235 -44 427 16 680 20 85 39 125 60 125 8 0 140 -84 292
-187z m1104 163 c78 -17 177 -76 246 -147 201 -208 158 -573 -86 -736 -150
-99 -341 -110 -504 -27 -109 55 -219 199 -248 323 -17 74 -8 211 19 283 40
105 161 232 260 274 89 38 219 50 313 30z m388 -1039 c80 -38 228 -109 328
-158 101 -49 186 -89 190 -89 3 0 20 -12 39 -26 33 -25 34 -27 18 -51 -24 -37
-120 -127 -210 -198 -149 -117 -374 -225 -562 -270 -108 -26 -107 -27 -99 118
3 67 8 138 10 157 2 19 7 80 11 135 3 55 8 111 10 125 2 14 6 70 10 125 10
159 14 179 36 197 28 24 45 19 219 -65z m-771 56 c25 -21 27 -31 36 -168 3
-55 8 -116 10 -135 1 -19 6 -82 10 -140 3 -58 8 -123 10 -145 2 -22 7 -77 10
-123 3 -46 6 -86 6 -90 5 -33 -4 -71 -17 -76 -15 -6 -152 24 -199 44 -11 4
-47 18 -80 31 -79 30 -182 81 -251 125 -112 72 -298 234 -323 282 -17 32 -7
42 97 93 48 23 212 104 365 181 153 76 284 138 292 138 7 0 22 -8 34 -17z
m-1177 -42 c4 -1 34 -56 67 -123 122 -250 265 -422 476 -574 145 -104 270
-169 418 -219 170 -57 297 -77 487 -79 605 -6 1132 331 1395 891 33 71 50 95
70 103 15 6 30 8 35 5 5 -3 75 -28 157 -56 81 -28 154 -56 161 -61 26 -22 10
-74 -78 -250 -236 -468 -726 -862 -1235 -993 -205 -52 -302 -64 -530 -60 -115
1 -221 5 -235 8 -14 3 -41 8 -60 11 -471 70 -955 366 -1251 766 -66 89 -154
238 -199 335 -70 153 -71 176 -6 200 150 56 293 102 306 100 8 -2 18 -4 22 -4z"/>
<path d="M2447 4474 c-1 -1 -33 -5 -72 -8 -38 -4 -79 -8 -90 -11 -11 -2 -25
-4 -31 -4 -6 -1 -10 -13 -9 -28 1 -23 6 -28 26 -28 13 0 31 3 40 7 26 12 36
-10 45 -97 4 -44 8 -83 10 -87 1 -5 2 -22 3 -38 1 -28 4 -30 29 -26 15 2 31 5
35 5 4 1 5 25 3 54 -19 187 -19 197 0 199 11 0 24 2 29 3 6 2 20 3 32 4 18 1
22 6 19 24 -3 12 -5 25 -5 28 -1 5 -58 8 -64 3z"/>
<path d="M2676 4445 c-9 -13 -16 -26 -16 -28 0 -4 -107 -232 -117 -249 -2 -5
12 -8 32 -8 29 0 37 5 45 26 10 26 12 26 73 21 34 -3 63 -6 64 -7 0 0 6 -13
12 -30 5 -16 16 -30 23 -31 7 0 21 -2 31 -4 9 -2 17 -1 17 2 0 6 -82 318 -84
319 0 1 -15 4 -33 7 -26 5 -34 2 -47 -18z m69 -166 c5 -16 1 -19 -22 -18 -60
1 -63 8 -35 69 l26 54 13 -43 c7 -24 15 -52 18 -62z"/>
<path d="M2996 4409 c-19 -55 -84 -284 -82 -287 2 -1 19 -5 38 -8 34 -6 34 -6
47 46 12 45 16 51 35 46 11 -3 24 -6 27 -6 4 0 10 -29 13 -64 7 -61 8 -63 43
-74 l35 -11 -6 37 c-4 20 -9 51 -12 69 -5 24 -2 32 13 37 31 10 56 63 50 107
-7 55 -19 66 -99 90 -39 11 -77 23 -84 26 -8 3 -16 -1 -18 -8z m102 -84 c29
-7 33 -11 30 -38 -4 -42 -25 -52 -70 -34 -36 15 -36 16 -26 50 6 19 16 34 22
32 6 -1 26 -6 44 -10z"/>
<path d="M2045 4404 c-5 -1 -21 -5 -35 -8 -34 -7 -86 -55 -99 -90 -42 -108 45
-226 156 -213 140 15 193 198 82 279 -25 19 -84 37 -104 32z m59 -75 c53 -25
67 -110 25 -155 -44 -47 -137 -27 -160 33 -33 86 50 160 135 122z"/>
<path d="M3293 4313 c3 -5 8 -30 11 -58 8 -66 17 -119 22 -124 2 -2 -7 -22
-19 -45 -49 -94 -49 -94 -16 -112 17 -8 32 -14 33 -12 1 2 15 30 32 63 32 63
37 67 148 116 61 27 68 32 50 42 -10 5 -22 14 -25 20 -4 5 -34 -2 -70 -17 -35
-14 -67 -22 -70 -18 -4 4 -9 25 -13 48 -8 66 -10 68 -41 86 -32 18 -49 23 -42
11z"/>
<path d="M1623 4228 c-43 -22 -80 -41 -82 -43 -3 -4 50 -105 114 -214 l36 -61
30 17 c35 21 35 27 4 78 l-24 39 26 17 c26 17 27 17 71 -17 49 -37 68 -41 97
-20 17 13 15 16 -33 51 -43 30 -52 42 -50 64 4 55 -40 116 -92 126 -10 2 -54
-14 -97 -37z m113 -53 c7 -30 -7 -50 -47 -64 -27 -9 -30 -8 -45 22 -10 18 -13
32 -7 34 6 2 19 10 29 18 31 23 63 19 70 -10z"/>
<path d="M2419 2984 c-141 -42 -267 -172 -305 -317 -18 -70 -12 -198 14 -264
69 -179 247 -295 440 -287 146 6 266 74 349 195 54 79 68 132 68 254 0 104 -2
114 -33 177 -82 167 -235 261 -417 257 -38 -1 -91 -8 -116 -15z m181 -119 c0
-25 5 -37 18 -41 189 -59 266 -271 153 -424 -52 -71 -87 -94 -169 -111 -147
-31 -287 58 -323 204 -17 69 2 172 42 227 29 40 110 100 136 100 7 0 14 7 14
15 1 8 3 20 4 25 1 6 3 17 4 25 1 12 15 15 61 15 l60 0 0 -35z"/>
<path d="M1115 1766 c-11 -6 -68 -39 -127 -74 l-106 -63 15 -29 c8 -17 17 -30
19 -30 6 0 245 140 257 150 10 9 -13 60 -27 59 -6 -1 -20 -6 -31 -13z"/>
<path d="M4195 1695 c-20 -36 -38 -65 -41 -65 -2 0 -52 27 -111 60 l-108 60
-17 -21 c-28 -33 -34 -27 107 -104 33 -18 76 -42 95 -54 19 -11 40 -21 46 -21
7 0 35 41 64 92 49 86 51 93 34 105 -10 7 -21 13 -25 13 -5 0 -24 -29 -44 -65z"/>
<path d="M1089 1585 c-68 -47 -125 -88 -126 -92 -2 -5 6 -19 16 -32 l18 -23
71 51 c40 28 74 51 76 51 3 0 -38 -121 -62 -181 -9 -21 -6 -31 13 -55 l23 -28
102 89 c56 50 112 98 124 107 l21 17 -23 21 c-26 24 -22 26 -106 -48 -27 -23
-50 -41 -52 -40 -1 2 13 48 32 102 32 92 33 101 19 122 -9 13 -17 24 -18 24
-2 0 -59 -38 -128 -85z"/>
<path d="M3788 1553 l-26 -28 73 -120 c41 -66 81 -129 89 -140 15 -20 16 -20
35 5 18 23 18 27 5 47 -13 21 -12 26 23 73 36 47 45 51 83 36 18 -7 57 41 44
54 -5 4 -70 27 -144 50 -74 24 -140 45 -145 47 -6 2 -23 -9 -37 -24z m154 -77
l28 -11 -26 -33 -27 -33 -28 43 c-16 24 -29 46 -29 51 0 8 41 0 82 -17z"/>
<path d="M1376 1425 c-19 -15 -19 -16 17 -53 l36 -37 -84 -96 c-89 -102 -90
-104 -39 -132 7 -4 42 29 85 81 40 48 76 91 80 96 4 4 23 -3 42 -18 41 -31 53
-32 67 -6 9 17 -1 29 -80 97 -50 43 -94 79 -98 80 -4 1 -16 -4 -26 -12z"/>
<path d="M3655 1410 c-20 -22 -18 -26 45 -91 70 -72 71 -70 -41 -37 -88 25
-106 28 -126 17 -13 -7 -22 -18 -19 -25 8 -21 177 -244 185 -244 4 0 16 9 25
19 20 22 20 23 -41 104 -24 31 -40 57 -35 57 5 0 52 -13 105 -28 l96 -29 28
23 c15 12 24 26 20 31 -5 4 -54 56 -110 116 -55 59 -104 107 -107 107 -4 0
-15 -9 -25 -20z"/>
<path d="M1638 1215 c-39 -51 -158 -229 -158 -236 0 -7 148 -105 175 -116 16
-6 47 25 39 39 -2 4 -28 20 -57 37 -87 51 -83 45 -57 80 l22 32 45 -26 c35
-21 47 -24 59 -15 19 17 18 37 -3 45 -10 3 -28 14 -41 25 -23 19 -23 20 -5 44
l18 24 63 -35 c35 -19 65 -33 67 -31 1 2 7 13 14 25 10 20 8 24 -21 39 -18 9
-58 33 -88 54 l-55 37 -17 -22z"/>
<path d="M3313 1150 c-57 -29 -77 -62 -77 -131 0 -47 4 -63 28 -94 92 -121
276 -62 278 90 2 115 -122 189 -229 135z m115 -38 c7 -1 24 -14 37 -28 58 -62
11 -164 -75 -164 -32 0 -44 6 -69 37 -33 40 -38 67 -20 106 19 42 58 57 127
49z"/>
<path d="M1891 1068 c-5 -13 -26 -61 -46 -108 -20 -47 -43 -102 -50 -122 -13
-36 -13 -37 16 -47 32 -11 33 -10 70 86 7 20 11 21 38 10 28 -10 31 -16 32
-54 1 -24 2 -53 2 -65 1 -23 29 -47 56 -48 11 0 13 15 9 71 -5 66 -4 71 17 81
46 21 71 103 43 141 -12 16 -147 77 -169 77 -5 0 -13 -10 -18 -22z m132 -88
c11 -10 0 -47 -16 -53 -15 -6 -87 22 -87 33 0 5 4 20 10 35 10 25 10 25 47 10
21 -9 42 -20 46 -25z"/>
<path d="M3067 1049 c-11 -7 -15 -15 -10 -22 5 -7 29 -72 53 -144 43 -125 46
-132 69 -128 13 2 28 8 33 13 4 4 -14 71 -41 148 -51 145 -61 159 -104 133z"/>
<path d="M2935 1009 c-16 -5 -45 -11 -65 -14 -19 -3 -59 -10 -88 -17 -49 -10
-53 -14 -50 -37 3 -23 7 -26 38 -23 19 2 41 5 50 7 13 3 19 -11 28 -68 6 -40
14 -83 17 -97 3 -14 8 -39 11 -57 6 -29 8 -31 36 -22 17 4 32 10 34 11 1 2 -8
53 -21 113 -13 61 -24 116 -25 122 0 7 20 18 45 24 37 9 45 16 45 34 0 28 -16
35 -55 24z"/>
<path d="M2185 982 c-4 -9 -9 -28 -11 -42 -3 -14 -16 -74 -30 -133 -15 -60
-24 -110 -21 -113 2 -3 17 -6 33 -7 28 -2 29 0 44 75 9 43 19 80 22 83 3 3 13
-13 22 -37 56 -139 66 -156 102 -160 19 -2 34 1 35 7 0 5 2 19 4 30 4 19 9 67
21 185 3 30 7 64 9 76 3 18 -2 21 -31 22 -33 1 -34 0 -35 -36 0 -20 -2 -46 -4
-57 -3 -11 -5 -35 -7 -52 -3 -42 -6 -37 -53 72 -21 50 -39 90 -39 91 -1 1 -13
4 -27 8 -20 4 -29 1 -34 -12z"/>
<path d="M2504 806 l-52 -154 31 -5 c26 -3 31 0 41 25 9 23 16 28 46 29 19 0
48 2 63 3 22 1 32 -5 43 -26 12 -23 20 -27 41 -24 14 3 27 7 29 8 1 2 -24 69
-56 148 l-58 145 -39 3 -38 3 -51 -155z m121 -6 l14 -40 -43 0 -44 0 15 43
c26 78 23 74 34 55 5 -10 16 -36 24 -58z"/>
</g>
</svg>
