<?xml version="1.0" encoding="utf-8"?>
<!-- Generator: Adobe Illustrator 25.2.3, SVG Export Plug-In . SVG Version: 6.00 Build 0)  -->
<svg version="1.1" id="Layer_1" xmlns="http://www.w3.org/2000/svg" xmlns:xlink="http://www.w3.org/1999/xlink" x="0px" y="0px"
	 viewBox="0 0 382.4 378.8" style="enable-background:new 0 0 382.4 378.8;" xml:space="preserve">
<style type="text/css">
	.st0{opacity:0.1;fill:#4CC0B0;}
	.st1{fill:#FFD241;}
	.st2{fill:#EFA91F;}
	.st3{opacity:0.3;fill:#EFA91F;}
	.st4{fill:#8ED2CD;}
	.st5{fill:#E983B5;}
	.st6{fill:#22A08B;}
	.st7{opacity:0.4;fill:#1D899A;}
	.st8{fill:#015A98;}
	.st9{fill:#387BB7;}
	.st10{fill:#FFFFFF;}
	.st11{fill:#72CACE;}
	.st12{opacity:0.2;fill:#8ED2CD;}
	.st13{opacity:0.5;fill:#EFA91F;}
	.st14{fill:#24AD97;}
	.st15{fill:#8CD1CB;}
	.st16{opacity:0.4;fill:#24AD97;}
	.st17{fill:#E5615D;}
	.st18{opacity:0.3;fill:#E5615D;}
</style>
<g>
	<path class="st0" d="M332.7,336.2c0,14.8-71.2,42.5-112.8,42.5c-76.1,0-162.8-27.8-162.8-42.5c0-14.8,61.7-26.7,137.8-26.7
		C271,309.5,332.7,321.5,332.7,336.2z"/>
	<g>
		<g>
			<g>
				<path class="st1" d="M324.5,199.5l-95.7,50.6L62.5,199.5c0,0,1.1,125.7,3.7,129.7c2.6,4.1,151.9,51.4,161.9,49.5
					c10-1.8,90.2-51,93.9-54.7C325.6,320.4,324.5,199.5,324.5,199.5z"/>
				<path class="st1" d="M324.5,199.5c0,0-130.1-49.1-137.1-48.6c-7,0.5-123.1,45.2-124.9,48.6l166.3,50.6L324.5,199.5z"/>
				<path class="st2" d="M324.5,199.5c0,0-130.1-49.1-137.1-48.6c-7,0.5-123.1,45.2-124.9,48.6l166.3,50.6L324.5,199.5z"/>
			</g>
			<path class="st2" d="M187.4,150.9c0,0,38.8-50.1,46.2-52.4c7.4-2.2,145.3,30.3,148.6,34.4c3.3,4.1-57.7,66.5-57.7,66.5
				S249.1,174.1,187.4,150.9z"/>
			<path class="st2" d="M187.4,150.9c0,0-32.7-37.3-63.9-49c-3-1.1-123.8,47-123.5,49c0.4,2,53.6,35.6,62.5,48.6
				C62.5,199.5,175.2,156.3,187.4,150.9z"/>
			<path class="st3" d="M303.8,165.4c-8.9,1.3-33.3,2.8-41.6,1c-5.8-1.2-23.1-9.2-33.5-13.7c1.7-6.3,9.1-11.8,7-13.6
				c-2.8-2.5-15.4-16.4-21.2-16.9c-0.8-0.1-2-0.3-3.5-0.6c-11.8,14-23.6,29.3-23.6,29.3c43.4,16.3,93.5,33.6,119.5,42.5
				c-1.1-11.4-2-19.6-2-19.6C304.7,171.2,308.2,164.7,303.8,165.4z"/>
		</g>
		<g>
			<g>
				<path class="st4" d="M179.4,116.8c0,0,23.5,6.8,29.3,7.3c5.8,0.5,18.4,14.3,21.2,16.9c2.8,2.5-11.9,11.7-5.9,20.7
					c6.1,9,19.4,1,19.6,3.7c0.2,2.7,1.1,19.2,2.2,23.1c1.1,3.9-13.4,29.4-15.9,35.1c0,0-15.1-1.8-27.8-11.2c0,0-40.3,22.8-43.1,23.9
					c-2.8,1.1-13.8-18-22-34.6c-8.1-16.6-15.8-32.3-14.3-34.2c1.6-1.9,46.5-22,46.5-22S169.9,124.9,179.4,116.8z"/>
				<g>
					<path class="st5" d="M243.2,197.2c1.8-4.1,3-7.4,2.6-8.6c-0.2-0.7-0.4-1.9-0.6-3.4c-0.9-1-1.8-2-2.8-3
						c-5.2-5.4-10.5-10.9-15-17c-0.2-0.2-0.3-0.4-0.5-0.7c-1.1-0.7-2.1-1.6-2.9-2.8c-0.8-1.2-1.3-2.4-1.4-3.6
						c-3.3-5.6-6-11.6-8.3-17.7c-2-5.2-3.5-10.4-4-15.8c-0.6-0.2-1.2-0.4-1.7-0.4c-1.4-0.1-3.9-0.6-6.9-1.3
						C207,151,221,179.1,243.2,197.2z"/>
					<path class="st5" d="M222.8,204.2c3.8,3.5,7.9,6.7,12.1,9.6c1.4-2.7,2.9-5.6,4.3-8.4c-2.5-2-4.9-4-7.3-6
						c-10.6-9.3-19.1-20.6-26.1-32.8c-4.9-8.5-9.1-17.6-11.7-27.1c-1.8-6.4-2.7-12.9-3.2-19.4c-2.7-0.7-5.2-1.4-7.2-2
						c-1.3,5-2.2,9.9-1.9,15.1c0.4,8.8,3.2,17.6,6.8,25.7C196.6,176.1,208.7,191.7,222.8,204.2z"/>
					<path class="st5" d="M186.4,217.2c-9.1-11.3-16.5-23.8-23.2-36.7c-4.4-8.6-8.6-17.4-12.3-26.4c-4.7,2.1-9.6,4.4-14,6.5
						c2.9,7.1,6.1,14.2,9.5,21.2c7.9,16.3,17.2,31.9,27.8,46.6c4.7-2.6,9.9-5.5,14.5-8.1C188,219.1,187.2,218.2,186.4,217.2z"/>
					<path class="st5" d="M169.5,143.4c-0.1,1.4-0.1,2.2-0.1,2.2s-2.9,1.3-7.3,3.3c3.8,11.4,8.4,22.6,14,33.5
						c6,11.6,12.9,22.7,21,32.9c3.1-1.7,5-2.9,5-2.9c3.3,2.4,6.8,4.4,10.1,5.9c-9.8-10.8-18.1-23-25.4-36
						C179.9,170.1,173.2,157.3,169.5,143.4z"/>
				</g>
				<g>
					<path class="st6" d="M203.6,130.8c-11.4,4.6-23.1,8.9-34.2,14.3c-0.4,0.2-0.1,0.7,0.3,0.6c11.1-5.4,22.8-9.7,34.2-14.3
						C204.3,131.2,204,130.7,203.6,130.8L203.6,130.8z"/>
				</g>
				<g>
					<path class="st6" d="M236.9,192.2c-5.8,3.2-11.7,6.4-17.4,9.8c-2.9,1.8-5.8,3.6-8.6,5.4c-2.8,1.9-5.7,3.3-8.7,4.8
						c-0.4,0.2-0.1,0.7,0.3,0.6c2.8-1.4,5.6-2.8,8.2-4.5c2.8-1.9,5.7-3.7,8.6-5.5c5.9-3.6,11.9-6.8,17.9-10.1
						C237.5,192.5,237.3,192,236.9,192.2L236.9,192.2z"/>
				</g>
				<path class="st7" d="M137.1,201.8c8.1,16.6,19.2,35.7,22,34.6c2.8-1.1,43.1-23.9,43.1-23.9c12.6,9.4,27.8,11.2,27.8,11.2
					c2.5-5.7,17-31.1,15.9-35.1c-1.1-3.9-2-20.5-2.2-23.1c-0.2-2.7-13.6,5.3-19.6-3.7c-2.5-3.7-1.5-7.5,0.4-10.8
					c-5.7-2.5-10-4.3-10.5-4.2c-4.1,1.4-3,5.1-4.1,7.5c0,0-3.1,6-7.5,14.7c-4.6-5.8-8.7-10.5-10.6-10.9c-4.5-0.8-21.8-8.2-24.6-9.3
					c-2.8-1.1-1.4,16.4-13.6,18.1c-6.2,0.9-9.8-3.9-12.3-8.5c-9.4,4.4-17.7,8.4-18.4,9.2C121.3,169.5,129,185.2,137.1,201.8z"/>
			</g>
			<g>
				<path class="st8" d="M298,167.3c4.4-0.6,0.9,5.8,1.1,8.5c0,0,6.3,63.5,8.5,84.4c0,0,2,8.1-0.1,9.4c-2.1,1.3-65.8,0.2-66.9-0.8
					c-1.2-1,0.7-10.8,0.7-10.8l0.9-23.8l-7.8,22.5c0,0-1.9,9.8-3.3,10.3c-1.5,0.5-61.1-21.7-62.6-23.8c-1.5-2,3.4-8.8,3.4-8.8
					c9.6-18.7,38.7-75.5,38.7-75.5c1.1-2.4,0-6.1,4.1-7.5c1.5-0.5,33.3,15.1,41.6,16.8C264.7,170.1,289.1,168.6,298,167.3z"/>
				<g>
					<path class="st9" d="M246.2,216.5c5.8-1.3,9-4.9,10.4-10.2c1.1-4.2,2.1-8.5,3.2-12.7c1.1-4.2,2.7-8.3,3.8-12.6c0,0,0,0,0,0
						c3.5,0.5,6.9,1.1,10.4,1.2c3.2,0.1,6.3-0.1,9.5-0.3c3.5,8.7,8.9,16.6,17.2,22.1c0.5,0.3,1-0.3,0.6-0.6
						c-8.1-5.4-13.4-13.1-16.9-21.6c0.5,0,1-0.1,1.5-0.1c3.9-0.3,7.9-0.5,11.8-1.1c0.5-0.1,0.5-0.9-0.1-0.8c-4.4,0.7-9,1.1-13.6,1.3
						c-0.1-0.1-0.3,0-0.4,0c-2.4,0.1-4.8,0.2-7.2,0.2c-4.2,0.1-8.3-0.5-12.4-1.2c-2.9-0.5-6.8-0.5-9.5-1.8c0,0,0,0,0,0
						c0.7-2.8,1.5-5.6,2.7-8.2c0.2-0.5-0.6-0.8-0.8-0.4c-1.9,4.1-2.8,8.6-3.9,12.9c-1.7,7-3.2,14-4.7,21c-1.4,6.6-2.7,13.2-4,19.9
						c-0.6,3.3-1.1,6.6-1.9,9.8c-0.1,0.5,0.7,0.7,0.9,0.2c0.8-3.1,1.3-6.3,1.9-9.5C245.1,221.6,245.7,219,246.2,216.5z M253.1,184.1
						c0.4-1.6,0.7-3.2,1.1-4.9c2.3,1.1,5.3,1.2,7.8,1.6c0.2,0,0.4,0.1,0.7,0.1c-1.9,7.2-4.2,14.3-6,21.6c-0.8,3.2-1.4,6.5-3.4,9.2
						c-1.6,2.2-4.2,3.4-6.9,4c0.7-3.6,1.4-7.2,2.2-10.8C249.9,197.9,251.4,190.9,253.1,184.1z"/>
					<path class="st9" d="M198.8,182.9c12.1,1.2,21.8-6.3,28.6-14.6c1.2,0.6,2.4,1.1,3.7,1.7c7.1,2.9,14.7,4.8,21.8,7.7
						c0.5,0.2,0.9-0.5,0.4-0.7c-7.1-2.9-14.6-4.8-21.8-7.7c-7.2-2.9-13.7-7.2-20.6-10.8c-0.5-0.3-0.9,0.5-0.4,0.7
						c5.4,2.8,10.6,6.1,16.1,8.8c-6.6,8-15.9,15.4-27.6,14.2C198.4,182.1,198.2,182.9,198.8,182.9z"/>
					<path class="st9" d="M234.2,255c-20.9-5.9-43.1-9.7-61.4-21.7c-0.5-0.3-1,0.3-0.6,0.6c18.4,12.2,40.7,15.9,61.8,21.9
						C234.6,256,234.7,255.2,234.2,255z"/>
					<path class="st9" d="M306,258.2c-5.1,0.7-10.5,0.6-15.7,0.8c-5.7,0.2-11.4,0.5-17,0.7c-10.4,0.4-21.1,1.1-31.3-1.7
						c-0.5-0.2-0.7,0.6-0.2,0.8c9.8,2.7,20.1,2.3,30.1,1.8c5.6-0.3,11.2-0.5,16.8-0.7c5.7-0.2,11.7-0.1,17.4-0.9
						C306.6,258.9,306.5,258.1,306,258.2z"/>
				</g>
				<path class="st9" d="M264.1,175.9c-0.3,1.5-1.9,2.5-3.7,2.1c-1.8-0.3-3-1.8-2.7-3.3c0.3-1.5,1.9-2.5,3.7-2.1
					C263.2,173,264.4,174.4,264.1,175.9z"/>
				<path class="st7" d="M225.2,200.7c-3.3-3.9-14.2-19.6-21.5-28.1c-9.2,18-25.2,49.1-31.8,62c0,0-4.8,6.8-3.4,8.8
					c0.8,1.1,17.5,7.7,33.5,13.6c-0.8-15.6-1.9-33.6-1.9-33.6C215.9,215.2,225.2,200.7,225.2,200.7z"/>
				<path class="st7" d="M231.1,267.1c1.5-0.5,3.3-10.3,3.3-10.3l6.9-19.9c-12.3,6.6-24.3,13.6-35.8,21.5
					C218.7,263.2,230.4,267.3,231.1,267.1z"/>
				<path class="st7" d="M302.2,206.8c-20.1,9.7-40.4,19.1-60.1,29.6l-0.9,21.7c0,0-1.9,9.8-0.7,10.8c1.2,1,64.8,2.1,66.9,0.8
					c2.1-1.3,0.1-9.4,0.1-9.4C306.4,249.2,304.1,226,302.2,206.8z"/>
			</g>
			<g>
				<path class="st10" d="M86.5,194.7c0,0,18.6-20.4,22-26.1c3.4-5.7,23.7-11.6,27.7-13.1c4-1.5,5.9,17.9,18.1,16.3
					c12.1-1.7,10.7-19.2,13.6-18.1c2.8,1.1,20.1,8.5,24.6,9.3c4.5,0.8,23.2,28.3,27.7,33.6c0,0-9.3,14.5-25.1,22.6
					c0,0,3.1,52.2,2.8,55.6c-0.3,3.4-25.1,5.1-46.1,5.1c-20.9,0-40.7,0-41.8-2.5c-1.1-2.5,0.8-58.2,0.8-58.2S89.9,208.3,86.5,194.7z
					"/>
				<g>
					<path class="st11" d="M112.8,177c-1,13.9-2.5,27.9-2.5,41.9c0,0.5,0.7,0.5,0.7,0c0-14,1.5-28,2.5-41.9
						C113.5,176.5,112.8,176.5,112.8,177L112.8,177z"/>
				</g>
				<g>
					<path class="st11" d="M191.7,173.7c0.4,7.5,0.7,15.1,1.3,22.6c0.3,3.8,0.7,7.7,1.2,11.5c0.5,3.8,0.6,7.4,0.6,11.2
						c0,0.5,0.7,0.5,0.7,0c0-3.6,0-7-0.5-10.6c-0.5-3.8-0.9-7.6-1.3-11.5c-0.7-7.7-1-15.5-1.4-23.2
						C192.4,173.3,191.7,173.3,191.7,173.7L191.7,173.7z"/>
				</g>
				<g>
					<path class="st11" d="M164.1,195.7c0.2,3.8-0.1,7.7,0.3,11.4c0.1,1.3,0.4,2.5,0.6,3.8c0.1,0.4,0.1,1.4,0.4,1.7
						c1.1,1.2,2.3,2.3,3.5,3.4c1,0.9,2,1.8,3.1,2.7c0.5,0.4,1.5,1.4,2.2,1.4c0.6,0,1.6-1,2.1-1.3c1-0.8,1.9-1.6,2.9-2.5
						c1.3-1.2,2.6-2.4,3.8-3.7c0.3-0.3,0.3-1,0.3-1.4c0.2-1.2,0.5-2.5,0.6-3.7c0.5-3.9,0.2-7.9,0.3-11.8c0-0.5-0.7-0.5-0.7,0
						c-0.1,3.5,0.1,7.1-0.2,10.6c-0.2,2-0.6,4-1,5.9c0-0.2-0.5,0.5-0.7,0.6c-0.7,0.7-1.4,1.4-2.2,2.1c-1.7,1.6-3.4,3.2-5.3,4.3
						c-0.7,0.4-4.5-3.5-5.1-4.1c-1.1-1-2.2-2.1-3.2-3.1c0.2,0.2,0-0.1,0-0.3c-0.1-0.4-0.1-0.8-0.2-1.1c-0.3-1.3-0.5-2.7-0.6-4
						c-0.4-3.6-0.1-7.4-0.2-11C164.8,195.3,164.1,195.3,164.1,195.7L164.1,195.7z"/>
				</g>
				<path class="st11" d="M153,179.6c8.9,0.1,16.1-7.2,18.7-15.2c0.9-2.9,1.3-5.7,1.6-8.7c-2.5-1-4.5-1.9-5.3-2.2
					c-2.8-1.1-1.4,16.4-13.6,18.1c-12.1,1.7-14.1-17.8-18.1-16.3c-0.8,0.3-2.1,0.8-3.8,1.3C136.1,166.3,141,179.5,153,179.6z"/>
				<g>
					<path class="st5" d="M120.2,196.4c-2.3,0-4.1,1.8-4.1,4.1c0,2.3,1.8,4.1,4.1,4.1c2.3,0,4.1-1.8,4.1-4.1
						C124.3,198.2,122.5,196.4,120.2,196.4z"/>
					<path class="st5" d="M131.1,223.3c-2.3,0-4.1,1.8-4.1,4.1c0,2.3,1.8,4.1,4.1,4.1c2.3,0,4.1-1.8,4.1-4.1
						C135.2,225.1,133.3,223.3,131.1,223.3z"/>
					<path class="st5" d="M116,245.1c0-2.3-1.8-4.1-4.1-4.1c-0.6,0-1.2,0.1-1.7,0.4c-0.1,2.4-0.1,4.9-0.2,7.4
						c0.6,0.3,1.2,0.5,1.9,0.5C114.2,249.3,116,247.4,116,245.1z"/>
					<path class="st5" d="M140.5,254.4c-2.3,0-4.1,1.8-4.1,4.1c0,2.3,1.8,4.1,4.1,4.1c2.3,0,4.1-1.9,4.1-4.1
						C144.6,256.3,142.8,254.4,140.5,254.4z"/>
					<path class="st5" d="M114.8,273.4c-2.3,0-4.1,1.9-4.1,4.1c0,0.1,0,0.2,0,0.3c1.2,0.6,4,1.1,7.9,1.4c0.2-0.5,0.4-1.1,0.4-1.7
						C118.9,275.3,117,273.4,114.8,273.4z"/>
					<path class="st5" d="M162.5,234.7c-2.3,0-4.1,1.8-4.1,4.1c0,2.3,1.8,4.1,4.1,4.1c2.3,0,4.1-1.8,4.1-4.1
						C166.6,236.5,164.8,234.7,162.5,234.7z"/>
					<path class="st5" d="M175.5,257.7c-2.3,0-4.1,1.8-4.1,4.1c0,2.3,1.9,4.1,4.1,4.1c2.3,0,4.1-1.8,4.1-4.1
						C179.6,259.5,177.7,257.7,175.5,257.7z"/>
					<path class="st5" d="M196.6,274.6c0,0.5,0.1,0.9,0.2,1.3c0.7-0.4,1.1-0.7,1.1-1.1c0-0.4,0-1.5,0-3.1
						C197,272.4,196.6,273.5,196.6,274.6z"/>
					<path class="st5" d="M156.3,277.6c-1.6,0-3,0.9-3.7,2.3c2.4,0,4.9,0,7.4-0.1C159.3,278.5,157.9,277.6,156.3,277.6z"/>
					<path class="st5" d="M196.4,243c-0.7-0.7-1.7-1.1-2.8-1.1c-2.3,0-4.1,1.8-4.1,4.1c0,2.3,1.8,4.1,4.1,4.1c1.2,0,2.4-0.6,3.1-1.4
						C196.6,246.8,196.5,244.9,196.4,243z"/>
					<path class="st5" d="M102.4,179.6c-2.3,0-4.1,1.8-4.1,4.1c0,2.3,1.8,4.1,4.1,4.1c2.3,0,4.1-1.8,4.1-4.1
						C106.5,181.5,104.7,179.6,102.4,179.6z"/>
					<path class="st5" d="M130.1,172.9c0-2.3-1.8-4.1-4.1-4.1c-2.3,0-4.1,1.8-4.1,4.1c0,2.3,1.8,4.1,4.1,4.1
						C128.2,177,130.1,175.1,130.1,172.9z"/>
					<path class="st5" d="M153.4,189.2c2.3,0,4.1-1.8,4.1-4.1c0-2.3-1.8-4.1-4.1-4.1c-2.3,0-4.1,1.8-4.1,4.1
						C149.2,187.4,151.1,189.2,153.4,189.2z"/>
					<path class="st5" d="M190.1,162.5c0-0.1,0-0.1,0-0.2c-1.9-0.6-4.5-1.5-7.2-2.6c-0.7,0.7-1.1,1.7-1.1,2.8c0,2.3,1.8,4.1,4.1,4.1
						C188.2,166.6,190.1,164.7,190.1,162.5z"/>
					<path class="st5" d="M148.7,206.9c-2.3,0-4.1,1.8-4.1,4.1c0,2.3,1.8,4.1,4.1,4.1c2.3,0,4.1-1.8,4.1-4.1
						C152.8,208.7,151,206.9,148.7,206.9z"/>
					<path class="st5" d="M181.8,183.8c-2.3,0-4.1,1.8-4.1,4.1c0,2.3,1.8,4.1,4.1,4.1c2.3,0,4.1-1.8,4.1-4.1
						C186,185.6,184.1,183.8,181.8,183.8z"/>
					<path class="st5" d="M195.1,216c0-2.3-1.8-4.1-4.1-4.1c-2.3,0-4.1,1.8-4.1,4.1c0,2.3,1.8,4.1,4.1,4.1
						C193.3,220.1,195.1,218.3,195.1,216z"/>
					<path class="st5" d="M212,185.6c-1.3,0.7-2.1,2.1-2.1,3.6c0,2.3,1.8,4.1,4.1,4.1c1.1,0,2.1-0.4,2.9-1.2
						C215.4,190.3,213.8,188,212,185.6z"/>
				</g>
				<path class="st12" d="M131.9,196.2c-3.5,0.2-7.3,1.1-10.8,0.7c-3.3-0.2-5.9-2-8.8-3.5c-7.1-3.7-13.8-5.1-20.9-4.1
					c-2.8,3.2-4.8,5.4-4.8,5.4c3.4,13.7,24.3,24.5,24.3,24.5s-2,55.6-0.8,58.2c1.1,2.5,20.9,2.5,41.8,2.5c20.9,0,45.8-1.7,46.1-5.1
					c0.2-2.5-1.5-32-2.3-47c-4.7-2.6-9.5-5.2-14.1-8.1C166.3,210.5,150.9,195.3,131.9,196.2z"/>
			</g>
		</g>
		<g>
			<path class="st1" d="M228.8,250.1c-2.6,0.2-54-15.9-98.7-30.1l-67.6-20.6c0,0,1.1,125.7,3.7,129.7c2.6,4.1,151.9,51.4,161.9,49.5
				c10-1.8,90.2-51,93.9-54.7c2.7-2.7,2.8-67.1,2.7-102.2L228.8,250.1z"/>
			<path class="st13" d="M228.8,250.1l-0.7,128.6c10-1.8,90.2-51,93.9-54.7c3.7-3.7,2.6-124.6,2.6-124.6L228.8,250.1z"/>
			<path class="st2" d="M324.5,199.5l-95.7,50.6L62.5,199.5c0,0,0.4,41.7,1.2,77.8C96,292,184.2,331,193.6,327.4
				c11.6-4.4,35.2-58.4,35.2-58.4s47.3,48.8,52.9,49.2c3.6,0.2,26.7-8.3,42.2-14.3C325.2,268.6,324.5,199.5,324.5,199.5z"/>
			<path class="st1" d="M228.8,250.1c0,0,49.2,63.2,53.2,63.6c4.1,0.4,62.1-29,100.2-74.7c1.8-2.2-57.7-39.5-57.7-39.5
				S256.1,230.5,228.8,250.1z"/>
			<path class="st1" d="M62.5,199.5c0,0-56.9,43.2-55.8,45.1c1.1,1.8,175.2,70.6,180.7,69.1c5.5-1.5,41.4-63.6,41.4-63.6
				S113.1,206.9,62.5,199.5z"/>
			<g>
				<path class="st13" d="M160.5,226.2c-8.4-2.8-17-5.6-25.7-8.2c-6.2,7-11.6,14.9-16.5,22.7c-8.3,12.8-14.9,26.5-21.2,40.4
					c8.8,3.4,17.6,6.8,26,10c7-14.1,13.6-28.4,20.2-42.5C145.1,244.9,152.9,232.3,160.5,226.2z"/>
			</g>
		</g>
		<g>
			<g>
				<path class="st14" d="M115.1,291.4c0.7-2.4,4.6-1.8,3.9,0.6c-2,7-3.5,14-7.5,20.1c-1.4,2.1-4.4-0.4-3-2.5
					C112,304.2,113.4,297.7,115.1,291.4z"/>
				<path class="st14" d="M108.3,291.4c0.9-2.4,4.4-0.7,3.6,1.6c-2,5.6-3.9,11.2-7.8,15.8c-1.7,1.9-4.7-0.6-3-2.5
					C104.7,302.1,106.3,296.6,108.3,291.4z"/>
				<path class="st14" d="M99.3,290c0.4-2.5,4.3-1.9,3.9,0.6c-1,5.9-3.2,11.9-7.2,16.4c-1.7,1.9-4.7-0.6-3-2.5
					C96.6,300.5,98.4,295.2,99.3,290z"/>
				<path class="st14" d="M94.9,287.1c-1.5,5.3-4.4,10.2-5.5,15.7c-0.5,2.5-4.4,1.9-3.9-0.6c1.1-5.5,3.9-10.3,5.5-15.7
					C91.8,284.1,95.6,284.7,94.9,287.1z"/>
				<path class="st14" d="M87.5,287.8c-2.2,4.6-4.6,9.1-6.3,14c-0.8,2.4-4.4,0.7-3.6-1.6c1.7-4.8,4.1-9.3,6.3-14
					C85,283.9,88.6,285.5,87.5,287.8z"/>
				<path class="st14" d="M80.9,282.7c-2,5.3-4.9,10.3-6,15.9c-0.5,2.5-4.3,1.9-3.9-0.6c1.1-6,4.2-11.2,6.3-16.9
					C78.2,278.7,81.8,280.3,80.9,282.7z"/>
				<path class="st14" d="M72.8,283.5c-2.6,4-5.4,8.1-6.1,13c-0.4,2.5-4.2,1.9-3.9-0.6c0.8-5.6,4-10.2,6.9-14.9
					C71.1,278.9,74.2,281.4,72.8,283.5z"/>
				<path class="st14" d="M65,280.4c-2.5,4.5-4.8,9.2-6.2,14.2c-0.7,2.4-4.6,1.8-3.9-0.6c1.5-5.4,3.8-10.4,6.5-15.2
					C62.6,276.6,66.2,278.2,65,280.4z"/>
				<path class="st14" d="M59.1,275.4c-2.6,4.4-5.5,8.8-6.5,13.9c-0.5,2.5-4.4,1.9-3.9-0.6c1.1-5.5,4-10.2,6.8-14.9
					C56.8,271.6,60.4,273.3,59.1,275.4z"/>
				<path class="st14" d="M49.6,272.3c1.3-2.1,4.9-0.5,3.6,1.6c-2.7,4.3-5,8.7-5.9,13.8c-0.5,2.5-4.3,1.9-3.9-0.6
					C44.4,281.7,46.7,276.9,49.6,272.3z"/>
			</g>
			<path class="st15" d="M162,226.7c0,0-10.4-17.1-21.7-19.4c-11.4-2.4-27.1-1.2-29.4-4.8c-2.4-3.6-21.3-17.2-34.4-5.6
				c-13.1,11.6-32.4,75-29.5,78.7c2.9,3.7,19,13,36.1,16.5c17.1,3.6,38.8,14.5,40.3,2c1.5-12.6,26.5-69.5,26.5-69.5
				S158.6,226.2,162,226.7z"/>
			<path class="st16" d="M91.7,220.6c-7.7-2-4.4-9-3.8-14.8c0.4-4.8-1.3-9-3.9-12.8c11.9-3,24.9,6.7,26.9,9.6c1.3,2,6.6,2.5,13,3
				c-3.2,1.5-6.3,3.3-9.3,5.7C108.5,215.8,100.2,222.5,91.7,220.6z"/>
			<path class="st16" d="M125.8,257.6c2.5-10.6,4.8-21.7,9.4-31.6c2.6-6,6.8-12.5,14.3-10.5c2.4,0.6,4.7,1.9,6.9,3.5
				c3.5,4.2,5.8,7.8,5.8,7.8c-3.4-0.5-12.2-2.1-12.2-2.1s-25,56.9-26.5,69.5c-0.5,3.8-2.8,5.4-6.2,5.8c0.6-4,1.1-7.9,1.8-11.8
				C120.9,277.9,123.6,267.7,125.8,257.6z"/>
		</g>
	</g>
	<g>
		<path class="st17" d="M191.2,89.8c-35-23-72.7-63.5-47.5-83.7s47.5,16.3,47.5,16.3s22.3-36.5,47.5-16.3S226.2,66.8,191.2,89.8z"/>
		<path class="st18" d="M238.6,6.1c-25.2-20.2-47.5,16.3-47.5,16.3v67.4C226.2,66.8,263.8,26.3,238.6,6.1z"/>
	</g>
</g>
</svg>
