<?xml version="1.0" encoding="utf-8"?>
<!-- Generator: Adobe Illustrator 25.2.3, SVG Export Plug-In . SVG Version: 6.00 Build 0)  -->
<svg version="1.1" id="Capa_1" xmlns="http://www.w3.org/2000/svg" xmlns:xlink="http://www.w3.org/1999/xlink" x="0px" y="0px"
	 viewBox="0 0 293.3 293.3" style="enable-background:new 0 0 293.3 293.3;" xml:space="preserve">
<style type="text/css">
	.st0{fill:#D4377A;}
	.st1{fill:#FFFFFF;fill-opacity:0.996;}
</style>
<g>
	<path class="st0" d="M146.7,0C94.9,0,52.9,42,52.9,93.7c0,22.3,7.8,42.8,20.9,58.9c4.2,5.2,11.2,13.3,14.9,18.9
		c21.1,32.1,48.2,78.6,56.1,116.9c1.4,6.5,3,6.6,4.7,0.2c5.6-20.6,20.2-65.6,50.4-112.8c3.6-5.6,10.9-13.5,15.4-18.4
		c6.6-7.1,12-15.2,16.2-24.1c5.7-12.1,8.9-25.5,8.9-39.6C240.4,42,198.4,0,146.7,0z"/>
	<path class="st1" d="M197.7,45.1c-1-1.2-2.1-2.3-3.2-3.2c-3.7,1-6.9,2.9-9.8,5.7c-1.4-1.2-2.8-2.3-4.2-3.3c2.1-3.5,3.1-7.2,3-10.9
		c-1.2-0.9-2.5-1.7-3.9-2.3c-3.3,1.9-5.9,4.5-7.9,8c-1.7-0.8-3.4-1.5-5.1-2.1c0.5-1.8,0.8-3.6,0.8-5.5c0-2.1-0.2-4-0.7-5.8
		c-1.4-0.6-2.9-1-4.4-1.2c-2.7,2.7-4.6,6-5.6,9.8c-1.8-0.3-3.6-0.6-5.4-0.7c0-1.9-0.2-3.8-0.7-5.6c-0.5-2-1.2-3.8-2.2-5.4h-0.1
		l-1-0.1c-0.4,0-0.8,0-1.2,0c-0.4,0-0.8,0-1.2,0l-1.1,0.1c-1.9,3.2-2.9,6.9-2.9,11c-1.7,0.1-3.5,0.3-5.4,0.7
		c-0.5-1.8-1.2-3.6-2.1-5.2c-1-1.8-2.2-3.3-3.5-4.6c-1.7,0.3-3.1,0.7-4.4,1.2c-1,3.6-1,7.4,0.1,11.4c-1.6,0.6-3.3,1.3-5.1,2.2
		c-2.1-3.5-4.8-6.2-8-8c-0.3,0.1-0.7,0.3-1.1,0.5c-0.3,0.2-0.7,0.4-1,0.6c-0.2,0.1-0.4,0.2-0.5,0.3l-1.3,0.9c-0.1,3.7,0.9,7.4,3,11
		c-1.5,1.2-2.9,2.2-4,3.1c-2.9-2.9-6.2-4.8-9.8-5.7c-1.2,1-2.2,2-3.2,3.2c1,3.7,2.9,7,5.7,9.8C99,56.4,97.9,57.8,97,59
		c-3.6-2.1-7.2-3.1-10.9-3c-0.4,0.6-0.8,1.2-1.2,1.8l-1.1,2.1c1.8,3.3,4.5,5.9,8,8c-1,2.4-1.6,4-2,4.8c-4-1-7.8-1.1-11.4,0
		c-0.6,1.3-0.9,2.7-1.2,4.4c2.6,2.7,5.9,4.6,9.8,5.6L86.6,88c-1.9,0-3.8,0.2-5.6,0.7c-1.9,0.5-3.7,1.2-5.4,2.2c-0.2,1.5-0.2,3,0,4.5
		c3.2,1.9,6.9,2.9,11,2.9c0.1,0.9,0.3,2.7,0.7,5.4c-3.9,1.1-7.2,3-9.9,5.7c0.2,1.5,0.6,3,1.2,4.4c3.6,1,7.4,1,11.4,0
		c0.6,1.6,1.3,3.3,2.1,4.8c-3.5,2-6.2,4.7-8,8c0.2,0.5,0.4,1,0.7,1.4c0,0.1,0.1,0.2,0.2,0.3c0.4,0.9,0.9,1.6,1.4,2.2
		c3.7,0.1,7.4-0.9,11-2.9c1,1.5,2.1,2.9,3.3,4.3c-2.9,2.9-4.8,6.1-5.7,9.8c0.9,1.2,2,2.3,3.2,3.2c3.6-0.9,6.9-2.8,9.8-5.7
		c1.4,1.2,2.8,2.3,4.3,3.3c-2,3.7-3,7.3-3,10.9c1.2,0.9,2.5,1.7,3.9,2.3c3.3-1.8,5.9-4.5,8-8.1c1.8,0.8,3.4,1.4,4.7,1.9
		c-0.5,1.8-0.7,3.7-0.7,5.5c0,2.1,0.2,4,0.7,5.8c1.4,0.6,2.8,1,4.4,1.2c1.3-1.3,2.5-2.9,3.5-4.7c0.9-1.7,1.6-3.4,2.1-5.2
		c1.6,0.3,3.4,0.6,5.4,0.7c0.1,4.1,1,7.8,2.9,11c0.1,0,0.2,0,0.3,0l0.9,0.1h2.3l1.1-0.1c1.9-3.2,2.9-6.8,2.9-11
		c1.7-0.1,3.4-0.4,5.1-0.7c1.1,4,3,7.3,5.7,9.9c1.6-0.2,3.1-0.6,4.4-1.1c1-3.6,1-7.4,0-11.4c1.6-0.6,3.2-1.3,4.9-2.1
		c2.1,3.6,4.8,6.2,8,8c1.4-0.6,2.7-1.3,3.9-2.2c0.1-3.7-0.9-7.4-3-11c1.4-1,2.8-2.1,4.1-3.2c3,2.9,6.3,4.8,9.9,5.7
		c1.2-0.9,2.3-2,3.2-3.2c-1-3.6-2.9-6.9-5.7-9.8c1.2-1.4,2.3-2.8,3.3-4.3c3.6,2,7.2,3,10.9,2.9l0.1-0.1c0.3-0.4,0.6-0.8,0.9-1.5
		c0.3-0.6,0.6-1.1,0.9-1.5l0.1-0.2c0.1-0.3,0.2-0.5,0.3-0.7c-1.8-3.2-4.4-5.9-8-8c0.5-1,1.2-2.6,2-4.8c1.8,0.5,3.6,0.8,5.5,0.8
		c2.1,0,4-0.2,5.8-0.7c0.5-1.3,0.9-2.7,1.2-4.4c-2.7-2.7-6-4.6-9.8-5.6c0.3-1.6,0.5-3.3,0.7-5.1c4.1,0,7.8-1,11-2.9
		c0.2-1.5,0.2-3,0-4.5c-3.2-1.9-6.8-2.9-11-2.9c-0.2-1.8-0.4-3.5-0.7-5.3c1.8-0.5,3.6-1.2,5.2-2.1c1.8-1,3.4-2.2,4.6-3.5
		c-0.3-1.7-0.7-3.1-1.2-4.4c-3.6-1-7.4-1-11.4,0c-0.4-1.3-1.1-2.9-2-4.8c3-1.7,5.3-3.8,7.1-6.4l0.8-1.2c0.1-0.2,0.2-0.3,0.2-0.4
		c-0.4-0.8-0.8-1.7-1.3-2.4c-0.1-0.3-0.3-0.6-0.5-0.8c-0.2-0.2-0.3-0.4-0.5-0.7c-3.7-0.1-7.4,0.9-11,2.9c-1-1.5-2.1-2.9-3.2-4.2
		C194.9,52,196.8,48.7,197.7,45.1 M185.3,55.1c0.2-0.4,0.6-0.6,1.1-0.6c0.6,0,1.1,0.2,1.5,0.7c6,6.3,10.3,13.9,12.7,22.7
		c2.5,9.2,2.8,18.5,0.6,27.9c-0.1,0.5-0.4,0.9-0.7,1.1c-0.4,0.3-0.9,0.4-1.4,0.2l-8.4-2.5c-0.4-0.1-0.7-0.4-1-0.7
		c-0.3-0.4-0.4-0.9-0.4-1.3c2.9-15-0.4-27.9-10-38.5c-0.5-0.3-0.7-0.8-0.7-1.3c0-0.6,0.2-1.1,0.6-1.6L185.3,55.1 M152.3,53.6
		c0.3-0.2,0.7-0.2,1.4,0c4.7,1.1,8.9,2.8,12.5,4.9c3.6,2.1,7.1,4.9,10.4,8.4c0.6,0.7,0.8,1.2,0.6,1.7c-0.1,0.2-0.6,0.5-1.3,0.9
		L156.3,79c-0.7,0.3-1.4,0.4-1.9,0c-0.6-0.3-0.9-0.8-0.9-1.6l-1.6-21.8C151.8,54.5,151.9,53.9,152.3,53.6 M160.6,51.4
		c-4.7-1.6-9.6-2.4-14.5-2.4c-5,0-9.8,0.8-14.5,2.4c-4.5,1.5-8.7,3.8-12.4,6.8c-0.6,0.5-1.1,0.7-1.5,0.7c-0.5,0.1-0.9-0.1-1.3-0.6
		l-5.8-6.5c-0.8-0.9-0.6-1.8,0.6-2.8c4.9-3.9,10.4-7,16.2-9.1c6.1-2.2,12.5-3.3,18.9-3.3c6.5,0,12.8,1.1,18.9,3.3
		c5.8,2.1,11.2,5.1,16.3,9.1c1.2,0.9,1.4,1.8,0.6,2.8l-5.8,6.5c-0.4,0.4-0.9,0.6-1.3,0.6c-0.4,0-1-0.3-1.6-0.7
		C169.3,55.2,165.1,52.9,160.6,51.4 M181.7,79.2c0.8-0.6,1.5-0.8,1.8-0.5c0.3,0.1,0.5,0.5,0.7,1.2c1.4,4.7,2.1,9.1,2.1,13.3
		c0,4.2-0.7,8.6-2.1,13.2c-0.3,0.9-0.6,1.3-1.1,1.3c-0.3,0-0.8-0.2-1.5-0.7l-18.1-12.3c-0.7-0.4-1-1-1-1.6c0-0.6,0.3-1.2,1-1.6
		L181.7,79.2 M146.1,79.1c3.9,0,7.2,1.4,10,4.1c2.7,2.7,4.1,6.1,4.1,10c0,3.9-1.4,7.2-4.1,10c-2.8,2.7-6.1,4.1-10,4.1
		c-3.9,0-7.2-1.4-9.9-4.1c-2.8-2.8-4.2-6.1-4.2-10c0-3.9,1.4-7.2,4.2-10C138.9,80.5,142.2,79.1,146.1,79.1 M153.5,108.8
		c0-0.8,0.3-1.3,0.9-1.6c0.5-0.3,1.2-0.3,1.9,0l19.7,9.5c0.9,0.4,1.4,0.9,1.4,1.3c0,0.3-0.2,0.7-0.7,1.2c-3.3,3.5-6.8,6.4-10.5,8.4
		c-3.6,2.1-7.8,3.7-12.5,4.8c-0.9,0.2-1.5,0.1-1.7-0.3c-0.2-0.3-0.2-0.8-0.2-1.6L153.5,108.8 M187,110.1c0.3-0.7,0.7-1.1,1.2-1.3
		c0.3-0.1,0.7-0.1,1.1,0l8.4,2.9c0.5,0.2,0.8,0.4,1,0.8c0.2,0.4,0.2,0.9,0,1.4c-4.2,10.6-11,19.2-20.5,25.8
		c-9.7,6.7-20.3,10.1-32,10.1c-11.7,0-22.4-3.3-32-10c-9.4-6.5-16.2-15.1-20.4-25.8c-0.2-0.6-0.2-1,0-1.5c0.2-0.4,0.5-0.7,1-0.8
		l8.4-2.9c0.3-0.1,0.7-0.1,1.1,0c0.5,0.2,0.8,0.5,1.1,1.1c3.3,8.2,8.6,14.9,16.1,19.9c7.5,5.2,15.8,7.7,24.9,7.7
		c9.1,0,17.4-2.5,24.8-7.6C178.2,124.9,183.6,118.3,187,110.1 M113.8,62.8c0,0.5-0.3,1-0.7,1.3c-9.6,10.6-12.9,23.4-10,38.5
		c0,0.5-0.1,0.9-0.4,1.3c-0.2,0.4-0.6,0.6-1,0.7l-8.4,2.5c-0.5,0.2-1,0.1-1.4-0.2c-0.3-0.2-0.6-0.6-0.7-1.1
		c-2.1-9.4-1.9-18.7,0.6-27.8c2.4-8.7,6.6-16.3,12.7-22.6c0.5-0.5,1-0.7,1.5-0.8c0.5,0,0.9,0.2,1.2,0.5l6,6.1
		C113.6,61.6,113.8,62.2,113.8,62.8 M115.1,68.7c-0.3-0.4-0.1-1,0.6-1.7l10-8.1c0.2-0.1,0.3-0.2,0.4-0.3c3.7-2.1,7.9-3.8,12.5-4.9
		c0.7-0.2,1.1-0.1,1.4,0c0.4,0.3,0.6,0.9,0.5,1.9l-1.6,21.8c-0.1,0.8-0.4,1.4-0.9,1.7c-0.3,0.2-0.7,0.3-1.1,0.2l-0.8-0.2
		c0,0,0,0-0.1,0l-19.7-9.5C115.7,69.3,115.3,69,115.1,68.7 M109.3,78.7c0.3,0,0.8,0.2,1.5,0.7l18.1,12.3c0.7,0.4,1,1,1,1.6
		c0,0.6-0.3,1.2-1,1.6l-18.1,12.3c-0.8,0.6-1.5,0.8-1.9,0.5c-0.3-0.1-0.5-0.5-0.7-1.2c-1.4-4.6-2.1-9.1-2.1-13.3
		c0-4.2,0.7-8.6,2.1-13.3C108.4,79.2,108.8,78.7,109.3,78.7 M136.4,107.5c0.7-0.3,1.3-0.4,1.9,0c0.6,0.3,0.9,0.9,0.9,1.7l1.6,21.8
		c0.1,1-0.1,1.7-0.4,1.9c-0.3,0.2-0.7,0.2-1.4,0c-4.7-1.1-8.9-2.7-12.5-4.8c-3.6-2.1-7.1-4.9-10.4-8.4c-0.6-0.7-0.8-1.2-0.6-1.6
		c0.2-0.3,0.6-0.6,1.3-0.9L136.4,107.5 M99.2,121.6l7.7-4.5l-0.9-1.7l-7.7,4.5L99.2,121.6 M119.9,135.2l1.1-1.6c2,1.1,3.3,1.8,3.7,2
		l0.8-1.3c-1.4-0.7-3.1-1.7-5.1-3.1l-5.1,7.4c1.8,1.2,3.7,2.4,5.6,3.5l0.8-1.3l-4.1-2.4l1.3-2l2.7,1.6l0.8-1.2
		C121.8,136.4,120.9,135.9,119.9,135.2 M113.1,125.2l-1.1,1.1l2.1,2l-4.9,5.5l1.5,1.3l4.7-5.6l2.3,1.7l0.9-1.2
		C116.4,128.1,114.5,126.5,113.1,125.2 M108.8,120.1c-0.3-0.6-0.6-1.1-0.9-1.4l-7.5,5.1c0.2,0.3,0.6,0.8,1.1,1.5l4.5-3.1l-2.2,6.2
		c0.1,0.1,0.3,0.3,0.6,0.8c0.2,0.3,0.5,0.6,0.7,0.7l6.9-6l-1.2-1.2l-4.2,3.6L108.8,120.1 M142.3,138.9c-0.8,0-1.3,0-1.7-0.1
		l-0.6,5.5l-2.6-5.9l-1.6-0.4l-2,8.8c0.4,0.1,1,0.2,1.8,0.3l1.1-5.3l2.6,6l2,0.3L142.3,138.9 M131.6,136.8l-4-1.5l-3.5,8.2
		c0.6,0.2,1.1,0.5,1.7,0.7l1.4-3.4l1.8,0.7l0.1,3.9c0.4,0.2,1.1,0.4,1.9,0.6l-0.3-4.2c0.6-0.1,1.1-0.4,1.5-0.9
		c0.4-0.5,0.6-1,0.7-1.7l0-0.5C132.9,137.8,132.4,137.1,131.6,136.8 M130.8,138.2c0.3,0.1,0.4,0.3,0.5,0.6c0,0.2,0,0.4-0.1,0.5
		c-0.1,0.3-0.3,0.5-0.5,0.7c-0.2,0.2-0.5,0.2-0.8,0.1l-2-0.8v0l0.7-2L130.8,138.2 M162.5,136.1l-1.8,0.6l2.9,8.4
		c0.8-0.2,1.4-0.4,1.8-0.6L162.5,136.1 M158.9,139l-0.4-1.5c-3.5,0.7-5.9,1.2-7.2,1.4l0.2,1.5l2.9-0.4l1.3,7.3l1.9-0.4l-1.5-7.2
		L158.9,139 M146.3,139.1l0,0.2l-2.9,8.7l1.8,0.1l0.5-1.6l3.9-0.1l0.5,1.5l1.8-0.2l-3.4-8.4l-0.1-0.2L146.3,139.1 M147.4,141.2
		l1.4,3.6l-2.6,0.1L147.4,141.2 M165.8,137.4c0,0.6,0.1,1.2,0.4,1.9l0.2,0.4c0.6,1,1.6,1.8,2.7,2.1c1.2,0.3,2.3,0.2,3.4-0.4
		c0.8-0.5,1.4-1.2,1.8-2c0.3-0.6,0.4-1.3,0.4-1.9c0-0.8-0.2-1.5-0.6-2.2c-0.6-1-1.6-1.8-2.7-2c-1.1-0.3-2.4-0.2-3.4,0.4
		C166.6,134.4,165.8,135.7,165.8,137.4 M167.4,137.4c0-1.1,0.5-1.9,1.5-2.5c0.6-0.4,1.4-0.5,2.2-0.3c0.8,0.2,1.4,0.7,1.8,1.3
		c0.3,0.5,0.4,1,0.4,1.5c0,0.7-0.2,1.3-0.7,1.9c-0.1,0.2-0.4,0.4-0.7,0.6c-0.6,0.3-1.3,0.5-1.9,0.4c-0.7-0.1-1.3-0.4-1.7-0.9
		l-0.3-0.5C167.5,138.4,167.4,137.9,167.4,137.4 M178.6,125.5c-0.7,0.7-1,1.2-1.2,1.3l3.8,4l-6.2-1.8c-0.3,0.3-0.8,0.6-1.3,0.9
		l5.4,7.3l1.4-1.2l-3.3-4.4l6.3,1.9c0.8-0.7,1.3-1.1,1.5-1.3L178.6,125.5 M190.8,125c0.3-0.4,0.5-0.7,0.6-0.8l-9-2.9l-1.3,1.6l4.9,8
		l1.2-1.3l-0.9-1.4l2.4-3l1.5,0.6L190.8,125 M187.1,124.5l-1.7,2.1l-2-3.3L187.1,124.5 M195.9,116.8l-1.4-0.7l-2.2,3.9l-6.5-3.6
		l-0.9,1.5l7.9,4.4L195.9,116.8 M155.1,84.2c-2.5-2.5-5.5-3.7-9-3.7c-3.5,0-6.5,1.2-9,3.7c-2.5,2.5-3.8,5.5-3.8,9
		c0,3.5,1.3,6.5,3.8,9c2.5,2.5,5.5,3.7,9,3.7c3.5,0,6.5-1.2,9-3.7c2.5-2.5,3.7-5.5,3.7-9C158.9,89.7,157.6,86.7,155.1,84.2
		 M152.3,88.1c0.2,0.2,0.4,0.4,0.5,0.7l0.2,0.4c0.7,1.3,1.1,2.6,1.1,4v0.1l-0.3,2.1c-0.2,0.7-0.5,1.3-0.9,1.9
		c-0.7,1.2-1.7,2.2-2.8,2.9c-0.3,0.1-0.5,0.3-0.7,0.4l-2.5,0.6c-0.3,0-0.5,0-0.8,0h-0.3c-1.1,0-2.2-0.3-3.1-0.7l-0.2-0.1
		c-0.2-0.1-0.5-0.3-0.7-0.4c-1.3-0.8-2.3-1.9-2.9-3.3c-0.1-0.2-0.1-0.3-0.2-0.5c-0.4-0.9-0.6-1.8-0.6-2.7v-0.1v-0.1v-0.1v-0.3v-0.2
		l0.6-2.7c0.1-0.3,0.3-0.6,0.4-0.8c0.7-1.3,1.8-2.3,3-3c0.4-0.2,0.7-0.4,1.1-0.5l0.7-0.2l0.2-2.2h3.5l0.1,2.1
		c1.4,0.3,2.6,0.9,3.6,1.7l0.9,0.9C152.3,88,152.3,88.1,152.3,88.1 M123.7,44.9c-0.9-0.8-1.7-0.9-2.5-0.5c-1.8,0.9-3.2,1.7-4.1,2.2
		l4.4,7.7l1.8-1.1l-1.6-2.8l1.6-0.9l2.8,2.1l1.8-0.8l-3.2-2.4c0.2-0.3,0.3-0.7,0.3-0.9C125,46.6,124.6,45.7,123.7,44.9 M122.9,47.5
		c0,0.2-0.1,0.5-0.3,0.6l-1.9,0.9l-1.1-1.9l1.9-1.1c0.4-0.2,0.8-0.2,1.1,0.2C122.9,46.6,123,47.1,122.9,47.5 M137.5,40.5l2.8-0.4
		l0.8,7.3l1.9-0.2l-0.7-7.3l2.9-0.2l-0.1-1.6c-2.6,0.1-5.2,0.4-7.7,0.8L137.5,40.5 M128.7,41.7c-0.8,0.8-1.2,1.9-1.2,3l0,0.4
		c0.1,1.2,0.7,2.2,1.6,3c0.9,0.8,2,1.2,3.2,1c1.1-0.1,2.2-0.6,2.9-1.5c0.8-0.9,1.2-1.9,1.2-3v-0.4c-0.1-1.2-0.7-2.3-1.6-3
		c-0.9-0.8-2.1-1.1-3.3-1C130.4,40.4,129.4,40.9,128.7,41.7 M129.2,45v-0.2c0-0.7,0.2-1.4,0.7-2c0.5-0.5,1.2-0.9,1.9-0.9
		c0.8,0,1.5,0.2,2.1,0.7c0.6,0.5,0.9,1.1,1,1.9v0.3c0,0.7-0.2,1.4-0.7,1.9c-0.5,0.6-1.1,0.9-1.9,0.9c-0.7,0.1-1.5-0.2-2-0.7
		C129.6,46.4,129.2,45.7,129.2,45 M164.8,43.3c-0.1-1.2-0.5-1.9-1.3-2.2c-2.6-0.8-4.1-1.3-4.4-1.4l-2.5,8.5c0.5,0.2,1.2,0.3,2,0.5
		l0.8-3.1l1.7,0.5l0.4,3.5l1.9,0.7l-0.6-4c0.7-0.1,1.2-0.5,1.5-1.1C164.7,44.7,164.8,44,164.8,43.3 M162.4,42.6
		c0.4,0.1,0.6,0.4,0.6,0.8c0,0.4-0.2,0.7-0.4,1.1c-0.3,0.3-0.6,0.5-0.9,0.4l-2-0.7l0.6-2.2C161.4,42.2,162.1,42.5,162.4,42.6
		 M152.1,38.6l-2-0.2l-4.2,8.8l1.8,0l0.8-1.5c1.4,0,2.6,0.1,3.7,0.3l0.5,1.7l1.8,0.3L152.1,38.6 M150.9,40.6l1.1,3.8
		c-0.9-0.1-1.9-0.2-2.8-0.3L150.9,40.6 M169.5,43.5l-2-0.9l1,5.7l-1.9,3.7l1.7,0.9l1.9-3.7l5.3-2.4c-0.8-0.4-1.3-0.8-1.7-1l-3.6,1.6
		L169.5,43.5L169.5,43.5z"/>
</g>
</svg>
